<svg xmlns="http://www.w3.org/2000/svg" width="1280" height="1040" viewBox="0 0 1280 1040" role="img">
<defs>
<linearGradient id="panelGradient" x1="0" x2="0" y1="0" y2="1">
<stop offset="0%" stop-color="#ffffff"/>
<stop offset="100%" stop-color="#f8fafc"/>
</linearGradient>
<pattern id="diagonalHatch" width="8" height="8" patternUnits="userSpaceOnUse" patternTransform="rotate(45)">
<line x1="0" y1="0" x2="0" y2="8" stroke="#cdd6e1" stroke-width="3"/>
</pattern>
<filter id="softShadow" x="-20%" y="-20%" width="140%" height="140%">
<feDropShadow dx="0" dy="6" stdDeviation="10" flood-color="#9fb0c2" flood-opacity="0.18"/>
</filter>
<style>
.canvas { fill: #f3f6fa; }
.title { font: 700 26px 'IBM Plex Sans', 'Helvetica Neue', Arial, sans-serif; fill: #12263a; }
.subtitle { font: 400 14px 'IBM Plex Sans', 'Helvetica Neue', Arial, sans-serif; fill: #5c6b7a; }
.axis { font: 600 14px 'IBM Plex Sans', 'Helvetica Neue', Arial, sans-serif; fill: #22313f; }
.label { font: 500 13px 'IBM Plex Sans', 'Helvetica Neue', Arial, sans-serif; fill: #22313f; }
.metric { font: 700 20px 'IBM Plex Sans', 'Helvetica Neue', Arial, sans-serif; fill: #12263a; }
.celltext { font: 700 16px 'IBM Plex Sans', 'Helvetica Neue', Arial, sans-serif; fill: #ffffff; }
.celltext-dark { font: 700 16px 'IBM Plex Sans', 'Helvetica Neue', Arial, sans-serif; fill: #173042; }
.cellsub { font: 500 11px 'IBM Plex Sans', 'Helvetica Neue', Arial, sans-serif; fill: rgba(255,255,255,0.88); }
.cellsub-dark { font: 600 11px 'IBM Plex Sans', 'Helvetica Neue', Arial, sans-serif; fill: #385062; }
.body { font: 500 12px 'IBM Plex Sans', 'Helvetica Neue', Arial, sans-serif; fill: #22313f; }
.small { font: 500 11px 'IBM Plex Sans', 'Helvetica Neue', Arial, sans-serif; fill: #5c6b7a; }
.tiny { font: 600 10px 'IBM Plex Sans', 'Helvetica Neue', Arial, sans-serif; fill: #6b7c8f; letter-spacing: 0.04em; }
.grid { fill: #ffffff; stroke: #d7dee6; stroke-width: 1.25; }
.panel { fill: url(#panelGradient); stroke: #dbe4ee; stroke-width: 1.25; filter: url(#softShadow); }
.subpanel { fill: #ffffff; stroke: #e2e8f0; stroke-width: 1; }
.legend-card { fill: #ffffff; stroke: #dbe4ee; stroke-width: 1; }
.guide { stroke: #d7dee6; stroke-width: 1; stroke-dasharray: 4 6; }
.baseline { stroke: #aab7c6; stroke-width: 1.1; }
.muted-cell { fill: #eef2f7; stroke: #d7dee6; stroke-width: 1; }
.muted-bar { fill: #ecf1f6; stroke: #d7dee6; stroke-width: 1; }
.outline { stroke: rgba(255,255,255,0.9); stroke-width: 1; }
</style>
</defs>
<rect x="0" y="0" width="1280" height="1040" class="canvas"/>
<rect x="24" y="24" width="1232" height="992" rx="22" class="panel"/>
<title>Family-size progress overview</title>
<desc>Stacked bar overview of the current public five-benchmark progress state for each published model family and size line.</desc>
<text x="48" y="64" class="title">Family-Size Progress Overview</text>
<text x="48" y="88" class="subtitle">Each stacked bar summarizes the five benchmark cells for one published model line.</text>
<text x="48" y="108" class="subtitle">6 lines are fully complete, 2 lines have partial checkpoints, 0 lines are currently running, and 0 attempted lines are currently unusable.</text>
<text x="48" y="128" class="subtitle">This public figure shows the four-family matrix currently published in the release package.</text>
<text x="340" y="172" class="tiny">FIVE BENCHMARK CELLS PER LINE</text>
<line x1="340.00" y1="198" x2="340.00" y2="908" class="guide"/>
<text x="340.00" y="188" text-anchor="middle" class="small">0</text>
<line x1="448.00" y1="198" x2="448.00" y2="908" class="guide"/>
<text x="448.00" y="188" text-anchor="middle" class="small">1</text>
<line x1="556.00" y1="198" x2="556.00" y2="908" class="guide"/>
<text x="556.00" y="188" text-anchor="middle" class="small">2</text>
<line x1="664.00" y1="198" x2="664.00" y2="908" class="guide"/>
<text x="664.00" y="188" text-anchor="middle" class="small">3</text>
<line x1="772.00" y1="198" x2="772.00" y2="908" class="guide"/>
<text x="772.00" y="188" text-anchor="middle" class="small">4</text>
<line x1="880.00" y1="198" x2="880.00" y2="908" class="guide"/>
<text x="880.00" y="188" text-anchor="end" class="small">5</text>
<text x="48" y="220" class="tiny">QWEN</text>
<text x="322" y="249" text-anchor="end" class="label">Qwen-S</text>
<rect x="340" y="230" width="540" height="28" rx="10" fill="#e2e8f0"/>
<rect x="340.00" y="230" width="432.00" height="28" fill="#2f855a" stroke="#ffffff" stroke-width="1"/>
<text x="556.00" y="249" text-anchor="middle" class="celltext">4</text>
<rect x="772.00" y="230" width="108.00" height="28" fill="#b7791f" stroke="#ffffff" stroke-width="1"/>
<text x="826.00" y="249" text-anchor="middle" class="celltext">1</text>
<text x="910" y="249" class="label">usable now 5/5</text>
<text x="322" y="295" text-anchor="end" class="label">Qwen-M</text>
<rect x="340" y="276" width="540" height="28" rx="10" fill="#e2e8f0"/>
<rect x="340.00" y="276" width="324.00" height="28" fill="#2f855a" stroke="#ffffff" stroke-width="1"/>
<text x="502.00" y="295" text-anchor="middle" class="celltext">3</text>
<rect x="664.00" y="276" width="108.00" height="28" fill="#b7791f" stroke="#ffffff" stroke-width="1"/>
<text x="718.00" y="295" text-anchor="middle" class="celltext">1</text>
<rect x="772.00" y="276" width="108.00" height="28" fill="#cbd5e1" stroke="#ffffff" stroke-width="1"/>
<text x="826.00" y="295" text-anchor="middle" class="celltext-dark">1</text>
<text x="910" y="295" class="label">usable now 4/5</text>
<text x="322" y="341" text-anchor="end" class="label">Qwen-L</text>
<rect x="340" y="322" width="540" height="28" rx="10" fill="#e2e8f0"/>
<rect x="340.00" y="322" width="432.00" height="28" fill="#2f855a" stroke="#ffffff" stroke-width="1"/>
<text x="556.00" y="341" text-anchor="middle" class="celltext">4</text>
<rect x="772.00" y="322" width="108.00" height="28" fill="#b7791f" stroke="#ffffff" stroke-width="1"/>
<text x="826.00" y="341" text-anchor="middle" class="celltext">1</text>
<text x="910" y="341" class="label">usable now 5/5</text>
<line x1="48" y1="352" x2="1232" y2="352" class="guide"/>
<text x="48" y="358" class="tiny">DEEPSEEK</text>
<text x="322" y="387" text-anchor="end" class="label">DeepSeek-S</text>
<rect x="340" y="368" width="540" height="28" rx="10" fill="#e2e8f0"/>
<rect x="340.00" y="368" width="540.00" height="28" fill="#cbd5e1" stroke="#ffffff" stroke-width="1"/>
<text x="610.00" y="387" text-anchor="middle" class="celltext-dark">5</text>
<text x="910" y="387" class="label">usable now 0/5</text>
<text x="322" y="433" text-anchor="end" class="label">DeepSeek-M</text>
<rect x="340" y="414" width="540" height="28" rx="10" fill="#e2e8f0"/>
<rect x="340.00" y="414" width="432.00" height="28" fill="#60a5fa" stroke="#ffffff" stroke-width="1"/>
<text x="556.00" y="433" text-anchor="middle" class="celltext-dark">4</text>
<rect x="772.00" y="414" width="108.00" height="28" fill="#cbd5e1" stroke="#ffffff" stroke-width="1"/>
<text x="826.00" y="433" text-anchor="middle" class="celltext-dark">1</text>
<text x="910" y="433" class="label">usable now 0/5 | partial 4</text>
<text x="322" y="479" text-anchor="end" class="label">DeepSeek-L</text>
<rect x="340" y="460" width="540" height="28" rx="10" fill="#e2e8f0"/>
<rect x="340.00" y="460" width="324.00" height="28" fill="#2f855a" stroke="#ffffff" stroke-width="1"/>
<text x="502.00" y="479" text-anchor="middle" class="celltext">3</text>
<rect x="664.00" y="460" width="108.00" height="28" fill="#b7791f" stroke="#ffffff" stroke-width="1"/>
<text x="718.00" y="479" text-anchor="middle" class="celltext">1</text>
<rect x="772.00" y="460" width="108.00" height="28" fill="#cbd5e1" stroke="#ffffff" stroke-width="1"/>
<text x="826.00" y="479" text-anchor="middle" class="celltext-dark">1</text>
<text x="910" y="479" class="label">usable now 4/5</text>
<line x1="48" y1="490" x2="1232" y2="490" class="guide"/>
<text x="48" y="496" class="tiny">LLAMA</text>
<text x="322" y="525" text-anchor="end" class="label">Llama-S</text>
<rect x="340" y="506" width="540" height="28" rx="10" fill="#e2e8f0"/>
<rect x="340.00" y="506" width="432.00" height="28" fill="#2f855a" stroke="#ffffff" stroke-width="1"/>
<text x="556.00" y="525" text-anchor="middle" class="celltext">4</text>
<rect x="772.00" y="506" width="108.00" height="28" fill="#b7791f" stroke="#ffffff" stroke-width="1"/>
<text x="826.00" y="525" text-anchor="middle" class="celltext">1</text>
<text x="910" y="525" class="label">usable now 5/5</text>
<text x="322" y="571" text-anchor="end" class="label">Llama-M</text>
<rect x="340" y="552" width="540" height="28" rx="10" fill="#e2e8f0"/>
<rect x="340.00" y="552" width="324.00" height="28" fill="#2f855a" stroke="#ffffff" stroke-width="1"/>
<text x="502.00" y="571" text-anchor="middle" class="celltext">3</text>
<rect x="664.00" y="552" width="108.00" height="28" fill="#b7791f" stroke="#ffffff" stroke-width="1"/>
<text x="718.00" y="571" text-anchor="middle" class="celltext">1</text>
<rect x="772.00" y="552" width="108.00" height="28" fill="#cbd5e1" stroke="#ffffff" stroke-width="1"/>
<text x="826.00" y="571" text-anchor="middle" class="celltext-dark">1</text>
<text x="910" y="571" class="label">usable now 4/5</text>
<text x="322" y="617" text-anchor="end" class="label">Llama-L</text>
<rect x="340" y="598" width="540" height="28" rx="10" fill="#e2e8f0"/>
<rect x="340.00" y="598" width="324.00" height="28" fill="#2f855a" stroke="#ffffff" stroke-width="1"/>
<text x="502.00" y="617" text-anchor="middle" class="celltext">3</text>
<rect x="664.00" y="598" width="216.00" height="28" fill="#60a5fa" stroke="#ffffff" stroke-width="1"/>
<text x="772.00" y="617" text-anchor="middle" class="celltext-dark">2</text>
<text x="910" y="617" class="label">usable now 3/5 | partial 2</text>
<line x1="48" y1="628" x2="1232" y2="628" class="guide"/>
<text x="48" y="634" class="tiny">GEMMA</text>
<text x="322" y="663" text-anchor="end" class="label">Gemma-S</text>
<rect x="340" y="644" width="540" height="28" rx="10" fill="#e2e8f0"/>
<rect x="340.00" y="644" width="432.00" height="28" fill="#2f855a" stroke="#ffffff" stroke-width="1"/>
<text x="556.00" y="663" text-anchor="middle" class="celltext">4</text>
<rect x="772.00" y="644" width="108.00" height="28" fill="#b7791f" stroke="#ffffff" stroke-width="1"/>
<text x="826.00" y="663" text-anchor="middle" class="celltext">1</text>
<text x="910" y="663" class="label">usable now 5/5</text>
<text x="322" y="709" text-anchor="end" class="label">Gemma-M</text>
<rect x="340" y="690" width="540" height="28" rx="10" fill="#e2e8f0"/>
<rect x="340.00" y="690" width="432.00" height="28" fill="#2f855a" stroke="#ffffff" stroke-width="1"/>
<text x="556.00" y="709" text-anchor="middle" class="celltext">4</text>
<rect x="772.00" y="690" width="108.00" height="28" fill="#b7791f" stroke="#ffffff" stroke-width="1"/>
<text x="826.00" y="709" text-anchor="middle" class="celltext">1</text>
<text x="910" y="709" class="label">usable now 5/5</text>
<text x="322" y="755" text-anchor="end" class="label">Gemma-L</text>
<rect x="340" y="736" width="540" height="28" rx="10" fill="#e2e8f0"/>
<rect x="340.00" y="736" width="432.00" height="28" fill="#2f855a" stroke="#ffffff" stroke-width="1"/>
<text x="556.00" y="755" text-anchor="middle" class="celltext">4</text>
<rect x="772.00" y="736" width="108.00" height="28" fill="#b7791f" stroke="#ffffff" stroke-width="1"/>
<text x="826.00" y="755" text-anchor="middle" class="celltext">1</text>
<text x="910" y="755" class="label">usable now 5/5</text>
<rect x="48" y="936" width="18" height="18" rx="4" fill="#2f855a"/>
<text x="76" y="950" class="label">Paper-setup done</text>
<rect x="238" y="936" width="18" height="18" rx="4" fill="#b7791f"/>
<text x="266" y="950" class="label">Proxy done</text>
<rect x="428" y="936" width="18" height="18" rx="4" fill="#60a5fa"/>
<text x="456" y="950" class="label">Partial checkpoint</text>
<rect x="618" y="936" width="18" height="18" rx="4" fill="#2563eb"/>
<text x="646" y="950" class="label">Running now</text>
<rect x="808" y="936" width="18" height="18" rx="4" fill="#dc2626"/>
<text x="836" y="950" class="label">Error</text>
<rect x="998" y="936" width="18" height="18" rx="4" fill="#cbd5e1"/>
<text x="1026" y="950" class="label">Pending / TBD / not planned</text>
<text x="48" y="974" class="small">See the public family-size progress table in the README below for the exact per-benchmark status labels.</text>
</svg>
