<svg xmlns="http://www.w3.org/2000/svg" width="1220" height="840" viewBox="0 0 1220 840" role="img">
<defs>
<style>
.title { font: 700 26px 'IBM Plex Sans', 'Helvetica Neue', Arial, sans-serif; fill: #12263a; }
.subtitle { font: 400 14px 'IBM Plex Sans', 'Helvetica Neue', Arial, sans-serif; fill: #5c6b7a; }
.axis { font: 600 14px 'IBM Plex Sans', 'Helvetica Neue', Arial, sans-serif; fill: #22313f; }
.label { font: 500 13px 'IBM Plex Sans', 'Helvetica Neue', Arial, sans-serif; fill: #22313f; }
.celltext { font: 700 16px 'IBM Plex Sans', 'Helvetica Neue', Arial, sans-serif; fill: #ffffff; }
.celltext-dark { font: 700 16px 'IBM Plex Sans', 'Helvetica Neue', Arial, sans-serif; fill: #173042; }
.cellsub { font: 500 11px 'IBM Plex Sans', 'Helvetica Neue', Arial, sans-serif; fill: rgba(255,255,255,0.88); }
.cellsub-dark { font: 600 11px 'IBM Plex Sans', 'Helvetica Neue', Arial, sans-serif; fill: #385062; }
.body { font: 500 12px 'IBM Plex Sans', 'Helvetica Neue', Arial, sans-serif; fill: #22313f; }
.small { font: 500 11px 'IBM Plex Sans', 'Helvetica Neue', Arial, sans-serif; fill: #5c6b7a; }
.grid { fill: #ffffff; stroke: #d7dee6; stroke-width: 1.25; }
.panel { fill: #f8fafc; stroke: #e2e8f0; stroke-width: 1.25; }
.subpanel { fill: #ffffff; stroke: #e2e8f0; stroke-width: 1; }
.guide { stroke: #d7dee6; stroke-width: 1; stroke-dasharray: 4 6; }
.outline { stroke: rgba(255,255,255,0.9); stroke-width: 1; }
</style>
</defs>
<rect x="24" y="24" width="1172" height="792" rx="22" class="panel"/>
<title>Comparable accuracy by benchmark</title>
<desc>Horizontal bar panels comparing completed family-size lines on benchmarks with directly comparable accuracy metrics.</desc>
<text x="48" y="64" class="title">Comparable Accuracy by Benchmark</text>
<text x="48" y="88" class="subtitle">Each panel compares the currently completed family-size lines that share the same accuracy-based benchmark metric.</text>
<text x="48" y="122" class="axis">Comparable completed lines</text>
<rect x="48" y="138" width="18" height="18" rx="4" fill="#0f766e"/>
<text x="76" y="152" class="label">Qwen-S</text>
<rect x="218" y="138" width="18" height="18" rx="4" fill="#1d4ed8"/>
<text x="246" y="152" class="label">DeepSeek-L</text>
<rect x="388" y="138" width="18" height="18" rx="4" fill="#b45309"/>
<text x="416" y="152" class="label">Llama-S</text>
<rect x="558" y="138" width="18" height="18" rx="4" fill="#7c3aed"/>
<text x="586" y="152" class="label">Gemma-S</text>
<rect x="42" y="166" width="1136" height="166" rx="18" class="subpanel"/>
<text x="48" y="190" class="axis">UniMoral</text>
<text x="48" y="210" class="subtitle">Action prediction accuracy</text>
<text x="1080" y="190" text-anchor="end" class="small">Accuracy</text>
<line x1="280.00" y1="224" x2="280.00" y2="360" class="guide"/>
<text x="280.00" y="216" text-anchor="middle" class="small">0%</text>
<line x1="480.00" y1="224" x2="480.00" y2="360" class="guide"/>
<text x="480.00" y="216" text-anchor="middle" class="small">25%</text>
<line x1="680.00" y1="224" x2="680.00" y2="360" class="guide"/>
<text x="680.00" y="216" text-anchor="middle" class="small">50%</text>
<line x1="880.00" y1="224" x2="880.00" y2="360" class="guide"/>
<text x="880.00" y="216" text-anchor="middle" class="small">75%</text>
<line x1="1080.00" y1="224" x2="1080.00" y2="360" class="guide"/>
<text x="1080.00" y="216" text-anchor="middle" class="small">100%</text>
<text x="264" y="255" text-anchor="end" class="label">Qwen-S</text>
<rect x="280" y="236" width="800" height="28" rx="10" fill="#e2e8f0"/>
<rect x="280" y="236" width="517.94" height="28" rx="10" fill="#0f766e"/>
<text x="807.94" y="255" text-anchor="start" class="label">64.7%</text>
<text x="264" y="297" text-anchor="end" class="label">DeepSeek-L</text>
<rect x="280" y="278" width="800" height="28" rx="10" fill="#e2e8f0"/>
<rect x="280" y="278" width="546.90" height="28" rx="10" fill="#1d4ed8"/>
<text x="836.90" y="297" text-anchor="start" class="label">68.4%</text>
<text x="264" y="339" text-anchor="end" class="label">Llama-S</text>
<rect x="280" y="320" width="800" height="28" rx="10" fill="#e2e8f0"/>
<rect x="280" y="320" width="518.40" height="28" rx="10" fill="#b45309"/>
<text x="808.40" y="339" text-anchor="start" class="label">64.8%</text>
<text x="264" y="381" text-anchor="end" class="label">Gemma-S</text>
<rect x="280" y="362" width="800" height="28" rx="10" fill="#e2e8f0"/>
<rect x="280" y="362" width="508.20" height="28" rx="10" fill="#7c3aed"/>
<text x="798.20" y="381" text-anchor="start" class="label">63.5%</text>
<rect x="42" y="364" width="1136" height="166" rx="18" class="subpanel"/>
<text x="48" y="388" class="axis">SMID</text>
<text x="48" y="408" class="subtitle">Average of moral rating and foundation classification</text>
<text x="1080" y="388" text-anchor="end" class="small">Accuracy</text>
<line x1="280.00" y1="422" x2="280.00" y2="558" class="guide"/>
<text x="280.00" y="414" text-anchor="middle" class="small">0%</text>
<line x1="480.00" y1="422" x2="480.00" y2="558" class="guide"/>
<text x="480.00" y="414" text-anchor="middle" class="small">25%</text>
<line x1="680.00" y1="422" x2="680.00" y2="558" class="guide"/>
<text x="680.00" y="414" text-anchor="middle" class="small">50%</text>
<line x1="880.00" y1="422" x2="880.00" y2="558" class="guide"/>
<text x="880.00" y="414" text-anchor="middle" class="small">75%</text>
<line x1="1080.00" y1="422" x2="1080.00" y2="558" class="guide"/>
<text x="1080.00" y="414" text-anchor="middle" class="small">100%</text>
<text x="264" y="453" text-anchor="end" class="label">Qwen-S</text>
<rect x="280" y="434" width="800" height="28" rx="10" fill="#e2e8f0"/>
<rect x="280" y="434" width="294.46" height="28" rx="10" fill="#0f766e"/>
<text x="584.46" y="453" text-anchor="start" class="label">36.8%</text>
<text x="264" y="495" text-anchor="end" class="label">Llama-S</text>
<rect x="280" y="476" width="800" height="28" rx="10" fill="#e2e8f0"/>
<rect x="280" y="476" width="173.14" height="28" rx="10" fill="#b45309"/>
<text x="463.14" y="495" text-anchor="start" class="label">21.6%</text>
<text x="264" y="537" text-anchor="end" class="label">Gemma-S</text>
<rect x="280" y="518" width="800" height="28" rx="10" fill="#e2e8f0"/>
<rect x="280" y="518" width="333.49" height="28" rx="10" fill="#7c3aed"/>
<text x="623.49" y="537" text-anchor="start" class="label">41.7%</text>
<rect x="42" y="562" width="1136" height="166" rx="18" class="subpanel"/>
<text x="48" y="586" class="axis">Value Kaleidoscope</text>
<text x="48" y="606" class="subtitle">Average of relevance and valence accuracy</text>
<text x="1080" y="586" text-anchor="end" class="small">Accuracy</text>
<line x1="280.00" y1="620" x2="280.00" y2="756" class="guide"/>
<text x="280.00" y="612" text-anchor="middle" class="small">0%</text>
<line x1="480.00" y1="620" x2="480.00" y2="756" class="guide"/>
<text x="480.00" y="612" text-anchor="middle" class="small">25%</text>
<line x1="680.00" y1="620" x2="680.00" y2="756" class="guide"/>
<text x="680.00" y="612" text-anchor="middle" class="small">50%</text>
<line x1="880.00" y1="620" x2="880.00" y2="756" class="guide"/>
<text x="880.00" y="612" text-anchor="middle" class="small">75%</text>
<line x1="1080.00" y1="620" x2="1080.00" y2="756" class="guide"/>
<text x="1080.00" y="612" text-anchor="middle" class="small">100%</text>
<text x="264" y="651" text-anchor="end" class="label">Qwen-S</text>
<rect x="280" y="632" width="800" height="28" rx="10" fill="#e2e8f0"/>
<rect x="280" y="632" width="545.92" height="28" rx="10" fill="#0f766e"/>
<text x="835.92" y="651" text-anchor="start" class="label">68.2%</text>
<text x="264" y="693" text-anchor="end" class="label">DeepSeek-L</text>
<rect x="280" y="674" width="800" height="28" rx="10" fill="#e2e8f0"/>
<rect x="280" y="674" width="507.74" height="28" rx="10" fill="#1d4ed8"/>
<text x="797.74" y="693" text-anchor="start" class="label">63.5%</text>
<text x="264" y="735" text-anchor="end" class="label">Llama-S</text>
<rect x="280" y="716" width="800" height="28" rx="10" fill="#e2e8f0"/>
<rect x="280" y="716" width="422.87" height="28" rx="10" fill="#b45309"/>
<text x="712.87" y="735" text-anchor="start" class="label">52.9%</text>
<text x="264" y="777" text-anchor="end" class="label">Gemma-S</text>
<rect x="280" y="758" width="800" height="28" rx="10" fill="#e2e8f0"/>
<rect x="280" y="758" width="474.13" height="28" rx="10" fill="#7c3aed"/>
<text x="764.13" y="777" text-anchor="start" class="label">59.3%</text>
</svg>
