<svg xmlns="http://www.w3.org/2000/svg" width="1180" height="600" viewBox="0 0 1180 600" role="img">
<defs>
<style>
.title { font: 700 26px 'IBM Plex Sans', 'Helvetica Neue', Arial, sans-serif; fill: #12263a; }
.subtitle { font: 400 14px 'IBM Plex Sans', 'Helvetica Neue', Arial, sans-serif; fill: #5c6b7a; }
.axis { font: 600 14px 'IBM Plex Sans', 'Helvetica Neue', Arial, sans-serif; fill: #22313f; }
.label { font: 500 13px 'IBM Plex Sans', 'Helvetica Neue', Arial, sans-serif; fill: #22313f; }
.celltext { font: 700 16px 'IBM Plex Sans', 'Helvetica Neue', Arial, sans-serif; fill: #ffffff; }
.celltext-dark { font: 700 16px 'IBM Plex Sans', 'Helvetica Neue', Arial, sans-serif; fill: #173042; }
.cellsub { font: 500 11px 'IBM Plex Sans', 'Helvetica Neue', Arial, sans-serif; fill: rgba(255,255,255,0.88); }
.cellsub-dark { font: 600 11px 'IBM Plex Sans', 'Helvetica Neue', Arial, sans-serif; fill: #385062; }
.body { font: 500 12px 'IBM Plex Sans', 'Helvetica Neue', Arial, sans-serif; fill: #22313f; }
.small { font: 500 11px 'IBM Plex Sans', 'Helvetica Neue', Arial, sans-serif; fill: #5c6b7a; }
.grid { fill: #ffffff; stroke: #d7dee6; stroke-width: 1.25; }
.panel { fill: #f8fafc; stroke: #e2e8f0; stroke-width: 1.25; }
.subpanel { fill: #ffffff; stroke: #e2e8f0; stroke-width: 1; }
.guide { stroke: #d7dee6; stroke-width: 1; stroke-dasharray: 4 6; }
.outline { stroke: rgba(255,255,255,0.9); stroke-width: 1; }
</style>
</defs>
<rect x="24" y="24" width="1132" height="552" rx="22" class="panel"/>
<title>Option 1 accuracy heatmap</title>
<desc>Heatmap of comparable accuracy metrics across the frozen Option 1 model families and benchmark task scopes.</desc>
<text x="48" y="64" class="title">Option 1 Accuracy Heatmap</text>
<text x="48" y="88" class="subtitle">Only tasks with directly comparable accuracy metrics are shown. Missing cells indicate benchmarks not run in the current closed slice.</text>
<text x="295.0" y="122" text-anchor="middle" class="axis">UniMoral</text>
<text x="295.0" y="140" text-anchor="middle" class="small">action</text>
<text x="465.0" y="122" text-anchor="middle" class="axis">SMID</text>
<text x="465.0" y="140" text-anchor="middle" class="small">rating</text>
<text x="635.0" y="122" text-anchor="middle" class="axis">SMID</text>
<text x="635.0" y="140" text-anchor="middle" class="small">foundation</text>
<text x="805.0" y="122" text-anchor="middle" class="axis">Value</text>
<text x="805.0" y="140" text-anchor="middle" class="small">relevance</text>
<text x="975.0" y="122" text-anchor="middle" class="axis">Value</text>
<text x="975.0" y="140" text-anchor="middle" class="small">valence</text>
<text x="186" y="193.0" text-anchor="end" class="axis">Qwen</text>
<rect x="210" y="148" width="156" height="64" rx="16" fill="#377d82" stroke="#ffffff" stroke-width="1"/>
<text x="288.0" y="184" text-anchor="middle" class="celltext">64.7%</text>
<text x="288.0" y="206" text-anchor="middle" class="cellsub">stderr 0.005</text>
<rect x="380" y="148" width="156" height="64" rx="16" fill="#f2e8cf" stroke="#ffffff" stroke-width="1"/>
<text x="458.0" y="184" text-anchor="middle" class="celltext-dark">25.8%</text>
<text x="458.0" y="206" text-anchor="middle" class="cellsub-dark">stderr 0.008</text>
<rect x="550" y="148" width="156" height="64" rx="16" fill="#88aba3" stroke="#ffffff" stroke-width="1"/>
<text x="628.0" y="184" text-anchor="middle" class="celltext-dark">47.8%</text>
<text x="628.0" y="206" text-anchor="middle" class="cellsub-dark">stderr 0.009</text>
<rect x="720" y="148" width="156" height="64" rx="16" fill="#2e787e" stroke="#ffffff" stroke-width="1"/>
<text x="798.0" y="184" text-anchor="middle" class="celltext">66.7%</text>
<text x="798.0" y="206" text-anchor="middle" class="cellsub">stderr 0.002</text>
<rect x="890" y="148" width="156" height="64" rx="16" fill="#1f6f78" stroke="#ffffff" stroke-width="1"/>
<text x="968.0" y="184" text-anchor="middle" class="celltext">69.8%</text>
<text x="968.0" y="206" text-anchor="middle" class="cellsub">stderr 0.003</text>
<text x="186" y="271.0" text-anchor="end" class="axis">DeepSeek</text>
<rect x="210" y="226" width="156" height="64" rx="16" fill="#26737b" stroke="#ffffff" stroke-width="1"/>
<text x="288.0" y="262" text-anchor="middle" class="celltext">68.4%</text>
<text x="288.0" y="284" text-anchor="middle" class="cellsub">stderr 0.005</text>
<rect x="380" y="226" width="156" height="64" rx="16" fill="#e7edf4" stroke="#d7dee6" stroke-width="1"/>
<text x="458.0" y="264" text-anchor="middle" class="label">n/a</text>
<text x="458.0" y="284" text-anchor="middle" class="small">not run</text>
<rect x="550" y="226" width="156" height="64" rx="16" fill="#e7edf4" stroke="#d7dee6" stroke-width="1"/>
<text x="628.0" y="264" text-anchor="middle" class="label">n/a</text>
<text x="628.0" y="284" text-anchor="middle" class="small">not run</text>
<rect x="720" y="226" width="156" height="64" rx="16" fill="#2c767d" stroke="#ffffff" stroke-width="1"/>
<text x="798.0" y="262" text-anchor="middle" class="celltext">67.1%</text>
<text x="798.0" y="284" text-anchor="middle" class="cellsub">stderr 0.002</text>
<rect x="890" y="226" width="156" height="64" rx="16" fill="#4f8a8c" stroke="#ffffff" stroke-width="1"/>
<text x="968.0" y="262" text-anchor="middle" class="celltext">59.8%</text>
<text x="968.0" y="284" text-anchor="middle" class="cellsub">stderr 0.003</text>
<text x="186" y="349.0" text-anchor="end" class="axis">Gemma</text>
<rect x="210" y="304" width="156" height="64" rx="16" fill="#3d8084" stroke="#ffffff" stroke-width="1"/>
<text x="288.0" y="340" text-anchor="middle" class="celltext">63.5%</text>
<text x="288.0" y="362" text-anchor="middle" class="cellsub">stderr 0.005</text>
<rect x="380" y="304" width="156" height="64" rx="16" fill="#c1ccbb" stroke="#ffffff" stroke-width="1"/>
<text x="458.0" y="340" text-anchor="middle" class="celltext-dark">35.9%</text>
<text x="458.0" y="362" text-anchor="middle" class="cellsub-dark">stderr 0.009</text>
<rect x="550" y="304" width="156" height="64" rx="16" fill="#8aaca4" stroke="#ffffff" stroke-width="1"/>
<text x="628.0" y="340" text-anchor="middle" class="celltext-dark">47.5%</text>
<text x="628.0" y="362" text-anchor="middle" class="cellsub-dark">stderr 0.009</text>
<rect x="720" y="304" width="156" height="64" rx="16" fill="#4b888a" stroke="#ffffff" stroke-width="1"/>
<text x="798.0" y="340" text-anchor="middle" class="celltext">60.6%</text>
<text x="798.0" y="362" text-anchor="middle" class="cellsub">stderr 0.002</text>
<rect x="890" y="304" width="156" height="64" rx="16" fill="#58908f" stroke="#ffffff" stroke-width="1"/>
<text x="968.0" y="340" text-anchor="middle" class="celltext">57.9%</text>
<text x="968.0" y="362" text-anchor="middle" class="cellsub">stderr 0.003</text>
<text x="690" y="506" class="axis">Accuracy scale</text>
<text x="690" y="522" class="small">Lighter cells mean lower accuracy; darker cells mean higher accuracy.</text>
<rect x="690.00" y="534" width="31.00" height="16" fill="#f2e8cf" stroke="#ffffff" stroke-width="0.6"/>
<rect x="720.00" y="534" width="31.00" height="16" fill="#dfddc7" stroke="#ffffff" stroke-width="0.6"/>
<rect x="750.00" y="534" width="31.00" height="16" fill="#ccd2bf" stroke="#ffffff" stroke-width="0.6"/>
<rect x="780.00" y="534" width="31.00" height="16" fill="#b8c7b7" stroke="#ffffff" stroke-width="0.6"/>
<rect x="810.00" y="534" width="31.00" height="16" fill="#a5bcaf" stroke="#ffffff" stroke-width="0.6"/>
<rect x="840.00" y="534" width="31.00" height="16" fill="#92b1a7" stroke="#ffffff" stroke-width="0.6"/>
<rect x="870.00" y="534" width="31.00" height="16" fill="#7fa6a0" stroke="#ffffff" stroke-width="0.6"/>
<rect x="900.00" y="534" width="31.00" height="16" fill="#6c9b98" stroke="#ffffff" stroke-width="0.6"/>
<rect x="930.00" y="534" width="31.00" height="16" fill="#599090" stroke="#ffffff" stroke-width="0.6"/>
<rect x="960.00" y="534" width="31.00" height="16" fill="#458588" stroke="#ffffff" stroke-width="0.6"/>
<rect x="990.00" y="534" width="31.00" height="16" fill="#327a80" stroke="#ffffff" stroke-width="0.6"/>
<rect x="1020.00" y="534" width="31.00" height="16" fill="#1f6f78" stroke="#ffffff" stroke-width="0.6"/>
<text x="690" y="568" class="small">25.8%</text>
<text x="1050" y="568" text-anchor="end" class="small">69.8%</text>
</svg>
