<svg xmlns="http://www.w3.org/2000/svg" width="1180" height="520" viewBox="0 0 1180 520" role="img">
<defs>
<style>
.title { font: 700 26px 'IBM Plex Sans', 'Helvetica Neue', Arial, sans-serif; fill: #12263a; }
.subtitle { font: 400 14px 'IBM Plex Sans', 'Helvetica Neue', Arial, sans-serif; fill: #5c6b7a; }
.axis { font: 600 14px 'IBM Plex Sans', 'Helvetica Neue', Arial, sans-serif; fill: #22313f; }
.label { font: 500 13px 'IBM Plex Sans', 'Helvetica Neue', Arial, sans-serif; fill: #22313f; }
.celltext { font: 700 16px 'IBM Plex Sans', 'Helvetica Neue', Arial, sans-serif; fill: #ffffff; }
.cellsub { font: 500 11px 'IBM Plex Sans', 'Helvetica Neue', Arial, sans-serif; fill: rgba(255,255,255,0.88); }
.body { font: 500 12px 'IBM Plex Sans', 'Helvetica Neue', Arial, sans-serif; fill: #22313f; }
.small { font: 500 11px 'IBM Plex Sans', 'Helvetica Neue', Arial, sans-serif; fill: #5c6b7a; }
.grid { fill: #ffffff; stroke: #d7dee6; stroke-width: 1.25; }
.panel { fill: #f8fafc; stroke: #e2e8f0; stroke-width: 1.25; }
</style>
</defs>
<rect x="24" y="24" width="1132" height="472" rx="22" class="panel"/>
<text x="48" y="64" class="title">Option 1 Benchmark Coverage</text>
<text x="48" y="88" class="subtitle">Green cells follow the paper setup. Amber cells are proxy-only. Gray cells were not part of the frozen release.</text>
<text x="295.0" y="112" text-anchor="middle" class="axis">UniMoral</text>
<text x="465.0" y="112" text-anchor="middle" class="axis">SMID</text>
<text x="635.0" y="112" text-anchor="middle" class="axis">Value Kaleidoscope</text>
<text x="805.0" y="112" text-anchor="middle" class="axis">CCD-Bench</text>
<text x="975.0" y="112" text-anchor="middle" class="axis">Denevil</text>
<text x="186" y="163.0" text-anchor="end" class="axis">Qwen</text>
<rect x="210" y="120" width="156" height="60" rx="16" fill="#2f855a"/>
<text x="288.0" y="154" text-anchor="middle" class="celltext">1/1</text>
<text x="288.0" y="174" text-anchor="middle" style="font: 500 11px IBM Plex Sans, Helvetica Neue, Arial, sans-serif; fill: rgba(255,255,255,0.88);">paper setup</text>
<rect x="380" y="120" width="156" height="60" rx="16" fill="#2f855a"/>
<text x="458.0" y="154" text-anchor="middle" class="celltext">2/2</text>
<text x="458.0" y="174" text-anchor="middle" style="font: 500 11px IBM Plex Sans, Helvetica Neue, Arial, sans-serif; fill: rgba(255,255,255,0.88);">paper setup</text>
<rect x="550" y="120" width="156" height="60" rx="16" fill="#2f855a"/>
<text x="628.0" y="154" text-anchor="middle" class="celltext">2/2</text>
<text x="628.0" y="174" text-anchor="middle" style="font: 500 11px IBM Plex Sans, Helvetica Neue, Arial, sans-serif; fill: rgba(255,255,255,0.88);">paper setup</text>
<rect x="720" y="120" width="156" height="60" rx="16" fill="#2f855a"/>
<text x="798.0" y="154" text-anchor="middle" class="celltext">1/1</text>
<text x="798.0" y="174" text-anchor="middle" style="font: 500 11px IBM Plex Sans, Helvetica Neue, Arial, sans-serif; fill: rgba(255,255,255,0.88);">paper setup</text>
<rect x="890" y="120" width="156" height="60" rx="16" fill="#b7791f"/>
<text x="968.0" y="154" text-anchor="middle" class="celltext">proxy</text>
<text x="968.0" y="174" text-anchor="middle" style="font: 500 11px IBM Plex Sans, Helvetica Neue, Arial, sans-serif; fill: rgba(255,255,255,0.88);">proxy</text>
<text x="186" y="237.0" text-anchor="end" class="axis">DeepSeek</text>
<rect x="210" y="194" width="156" height="60" rx="16" fill="#2f855a"/>
<text x="288.0" y="228" text-anchor="middle" class="celltext">1/1</text>
<text x="288.0" y="248" text-anchor="middle" style="font: 500 11px IBM Plex Sans, Helvetica Neue, Arial, sans-serif; fill: rgba(255,255,255,0.88);">paper setup</text>
<rect x="380" y="194" width="156" height="60" rx="16" fill="#cbd5e1"/>
<text x="458.0" y="228" text-anchor="middle" class="celltext">-</text>
<text x="458.0" y="248" text-anchor="middle" style="font: 500 11px IBM Plex Sans, Helvetica Neue, Arial, sans-serif; fill: #415466;">not in release</text>
<rect x="550" y="194" width="156" height="60" rx="16" fill="#2f855a"/>
<text x="628.0" y="228" text-anchor="middle" class="celltext">2/2</text>
<text x="628.0" y="248" text-anchor="middle" style="font: 500 11px IBM Plex Sans, Helvetica Neue, Arial, sans-serif; fill: rgba(255,255,255,0.88);">paper setup</text>
<rect x="720" y="194" width="156" height="60" rx="16" fill="#2f855a"/>
<text x="798.0" y="228" text-anchor="middle" class="celltext">1/1</text>
<text x="798.0" y="248" text-anchor="middle" style="font: 500 11px IBM Plex Sans, Helvetica Neue, Arial, sans-serif; fill: rgba(255,255,255,0.88);">paper setup</text>
<rect x="890" y="194" width="156" height="60" rx="16" fill="#b7791f"/>
<text x="968.0" y="228" text-anchor="middle" class="celltext">proxy</text>
<text x="968.0" y="248" text-anchor="middle" style="font: 500 11px IBM Plex Sans, Helvetica Neue, Arial, sans-serif; fill: rgba(255,255,255,0.88);">proxy</text>
<text x="186" y="311.0" text-anchor="end" class="axis">Gemma</text>
<rect x="210" y="268" width="156" height="60" rx="16" fill="#2f855a"/>
<text x="288.0" y="302" text-anchor="middle" class="celltext">1/1</text>
<text x="288.0" y="322" text-anchor="middle" style="font: 500 11px IBM Plex Sans, Helvetica Neue, Arial, sans-serif; fill: rgba(255,255,255,0.88);">paper setup</text>
<rect x="380" y="268" width="156" height="60" rx="16" fill="#2f855a"/>
<text x="458.0" y="302" text-anchor="middle" class="celltext">2/2</text>
<text x="458.0" y="322" text-anchor="middle" style="font: 500 11px IBM Plex Sans, Helvetica Neue, Arial, sans-serif; fill: rgba(255,255,255,0.88);">paper setup</text>
<rect x="550" y="268" width="156" height="60" rx="16" fill="#2f855a"/>
<text x="628.0" y="302" text-anchor="middle" class="celltext">2/2</text>
<text x="628.0" y="322" text-anchor="middle" style="font: 500 11px IBM Plex Sans, Helvetica Neue, Arial, sans-serif; fill: rgba(255,255,255,0.88);">paper setup</text>
<rect x="720" y="268" width="156" height="60" rx="16" fill="#2f855a"/>
<text x="798.0" y="302" text-anchor="middle" class="celltext">1/1</text>
<text x="798.0" y="322" text-anchor="middle" style="font: 500 11px IBM Plex Sans, Helvetica Neue, Arial, sans-serif; fill: rgba(255,255,255,0.88);">paper setup</text>
<rect x="890" y="268" width="156" height="60" rx="16" fill="#b7791f"/>
<text x="968.0" y="302" text-anchor="middle" class="celltext">proxy</text>
<text x="968.0" y="322" text-anchor="middle" style="font: 500 11px IBM Plex Sans, Helvetica Neue, Arial, sans-serif; fill: rgba(255,255,255,0.88);">proxy</text>
<rect x="48" y="448" width="18" height="18" rx="4" fill="#2f855a"/>
<text x="76" y="462" class="label">paper setup</text>
<rect x="258" y="448" width="18" height="18" rx="4" fill="#b7791f"/>
<text x="286" y="462" class="label">proxy</text>
<rect x="468" y="448" width="18" height="18" rx="4" fill="#cbd5e1"/>
<text x="496" y="462" class="label">not in release</text>
</svg>
