<svg xmlns="http://www.w3.org/2000/svg" width="1220" height="960" viewBox="0 0 1220 960" role="img">
<defs>
<linearGradient id="panelGradient" x1="0" x2="0" y1="0" y2="1">
<stop offset="0%" stop-color="#ffffff"/>
<stop offset="100%" stop-color="#f8fafc"/>
</linearGradient>
<pattern id="diagonalHatch" width="8" height="8" patternUnits="userSpaceOnUse" patternTransform="rotate(45)">
<line x1="0" y1="0" x2="0" y2="8" stroke="#cdd6e1" stroke-width="3"/>
</pattern>
<filter id="softShadow" x="-20%" y="-20%" width="140%" height="140%">
<feDropShadow dx="0" dy="6" stdDeviation="10" flood-color="#9fb0c2" flood-opacity="0.18"/>
</filter>
<style>
.canvas { fill: #f3f6fa; }
.title { font: 700 26px 'IBM Plex Sans', 'Helvetica Neue', Arial, sans-serif; fill: #12263a; }
.subtitle { font: 400 14px 'IBM Plex Sans', 'Helvetica Neue', Arial, sans-serif; fill: #5c6b7a; }
.axis { font: 600 14px 'IBM Plex Sans', 'Helvetica Neue', Arial, sans-serif; fill: #22313f; }
.label { font: 500 13px 'IBM Plex Sans', 'Helvetica Neue', Arial, sans-serif; fill: #22313f; }
.metric { font: 700 20px 'IBM Plex Sans', 'Helvetica Neue', Arial, sans-serif; fill: #12263a; }
.celltext { font: 700 16px 'IBM Plex Sans', 'Helvetica Neue', Arial, sans-serif; fill: #ffffff; }
.celltext-dark { font: 700 16px 'IBM Plex Sans', 'Helvetica Neue', Arial, sans-serif; fill: #173042; }
.cellsub { font: 500 11px 'IBM Plex Sans', 'Helvetica Neue', Arial, sans-serif; fill: rgba(255,255,255,0.88); }
.cellsub-dark { font: 600 11px 'IBM Plex Sans', 'Helvetica Neue', Arial, sans-serif; fill: #385062; }
.body { font: 500 12px 'IBM Plex Sans', 'Helvetica Neue', Arial, sans-serif; fill: #22313f; }
.small { font: 500 11px 'IBM Plex Sans', 'Helvetica Neue', Arial, sans-serif; fill: #5c6b7a; }
.tiny { font: 600 10px 'IBM Plex Sans', 'Helvetica Neue', Arial, sans-serif; fill: #6b7c8f; letter-spacing: 0.04em; }
.grid { fill: #ffffff; stroke: #d7dee6; stroke-width: 1.25; }
.panel { fill: url(#panelGradient); stroke: #dbe4ee; stroke-width: 1.25; filter: url(#softShadow); }
.subpanel { fill: #ffffff; stroke: #e2e8f0; stroke-width: 1; }
.legend-card { fill: #ffffff; stroke: #dbe4ee; stroke-width: 1; }
.guide { stroke: #d7dee6; stroke-width: 1; stroke-dasharray: 4 6; }
.baseline { stroke: #aab7c6; stroke-width: 1.1; }
.muted-cell { fill: #eef2f7; stroke: #d7dee6; stroke-width: 1; }
.muted-bar { fill: #ecf1f6; stroke: #d7dee6; stroke-width: 1; }
.outline { stroke: rgba(255,255,255,0.9); stroke-width: 1; }
</style>
</defs>
<rect x="0" y="0" width="1220" height="960" class="canvas"/>
<rect x="24" y="24" width="1172" height="912" rx="22" class="panel"/>
<title>Comparable accuracy by benchmark</title>
<desc>Horizontal bar panels comparing completed family-size lines on benchmarks with directly comparable accuracy metrics.</desc>
<text x="48" y="64" class="title">Comparable Accuracy by Benchmark</text>
<text x="48" y="88" class="subtitle">Each panel keeps the same completed lines in the same order. Hatched rows mark lines without a comparable run for that benchmark.</text>
<text x="48" y="122" class="axis">Comparable completed lines</text>
<rect x="48" y="138" width="18" height="18" rx="4" fill="#0f766e"/>
<text x="76" y="152" class="label">Qwen-S</text>
<rect x="218" y="138" width="18" height="18" rx="4" fill="#2563eb"/>
<text x="246" y="152" class="label">DeepSeek-L</text>
<rect x="388" y="138" width="18" height="18" rx="4" fill="#c2410c"/>
<text x="416" y="152" class="label">Llama-S</text>
<rect x="558" y="138" width="18" height="18" rx="4" fill="#7c3aed"/>
<text x="586" y="152" class="label">Gemma-S</text>
<rect x="42" y="164" width="1136" height="212" rx="18" class="subpanel"/>
<text x="48" y="192" class="axis">UniMoral</text>
<text x="48" y="212" class="subtitle">Action prediction accuracy</text>
<text x="1080" y="192" text-anchor="end" class="small">Accuracy</text>
<line x1="280.00" y1="226" x2="280.00" y2="408" class="guide"/>
<text x="280.00" y="218" text-anchor="middle" class="small">0%</text>
<line x1="480.00" y1="226" x2="480.00" y2="408" class="guide"/>
<text x="480.00" y="218" text-anchor="middle" class="small">25%</text>
<line x1="680.00" y1="226" x2="680.00" y2="408" class="guide"/>
<text x="680.00" y="218" text-anchor="middle" class="small">50%</text>
<line x1="880.00" y1="226" x2="880.00" y2="408" class="guide"/>
<text x="880.00" y="218" text-anchor="middle" class="small">75%</text>
<line x1="1080.00" y1="226" x2="1080.00" y2="408" class="guide"/>
<text x="1080.00" y="218" text-anchor="middle" class="small">100%</text>
<text x="264" y="257" text-anchor="end" class="label">Qwen-S</text>
<rect x="280" y="238" width="800" height="28" rx="10" fill="#e2e8f0"/>
<rect x="280" y="238" width="517.94" height="28" rx="10" fill="#0f766e"/>
<text x="807.94" y="257" text-anchor="start" class="label">64.7%</text>
<text x="264" y="299" text-anchor="end" class="label">DeepSeek-L</text>
<rect x="280" y="280" width="800" height="28" rx="10" fill="#e2e8f0"/>
<rect x="280" y="280" width="546.90" height="28" rx="10" fill="#2563eb"/>
<text x="836.90" y="299" text-anchor="start" class="label">68.4%</text>
<text x="264" y="341" text-anchor="end" class="label">Llama-S</text>
<rect x="280" y="322" width="800" height="28" rx="10" fill="#e2e8f0"/>
<rect x="280" y="322" width="518.40" height="28" rx="10" fill="#c2410c"/>
<text x="808.40" y="341" text-anchor="start" class="label">64.8%</text>
<text x="264" y="383" text-anchor="end" class="label">Gemma-S</text>
<rect x="280" y="364" width="800" height="28" rx="10" fill="#e2e8f0"/>
<rect x="280" y="364" width="508.20" height="28" rx="10" fill="#7c3aed"/>
<text x="798.20" y="383" text-anchor="start" class="label">63.5%</text>
<rect x="42" y="402" width="1136" height="212" rx="18" class="subpanel"/>
<text x="48" y="430" class="axis">SMID</text>
<text x="48" y="450" class="subtitle">Average of moral rating and foundation classification</text>
<text x="1080" y="430" text-anchor="end" class="small">Accuracy</text>
<line x1="280.00" y1="464" x2="280.00" y2="646" class="guide"/>
<text x="280.00" y="456" text-anchor="middle" class="small">0%</text>
<line x1="480.00" y1="464" x2="480.00" y2="646" class="guide"/>
<text x="480.00" y="456" text-anchor="middle" class="small">25%</text>
<line x1="680.00" y1="464" x2="680.00" y2="646" class="guide"/>
<text x="680.00" y="456" text-anchor="middle" class="small">50%</text>
<line x1="880.00" y1="464" x2="880.00" y2="646" class="guide"/>
<text x="880.00" y="456" text-anchor="middle" class="small">75%</text>
<line x1="1080.00" y1="464" x2="1080.00" y2="646" class="guide"/>
<text x="1080.00" y="456" text-anchor="middle" class="small">100%</text>
<text x="264" y="495" text-anchor="end" class="label">Qwen-S</text>
<rect x="280" y="476" width="800" height="28" rx="10" fill="#e2e8f0"/>
<rect x="280" y="476" width="294.46" height="28" rx="10" fill="#0f766e"/>
<text x="584.46" y="495" text-anchor="start" class="label">36.8%</text>
<text x="264" y="537" text-anchor="end" class="label">DeepSeek-L</text>
<rect x="280" y="518" width="800" height="28" rx="10" fill="#e2e8f0"/>
<rect x="280" y="518" width="800" height="28" rx="10" class="muted-bar"/>
<rect x="280" y="518" width="800" height="28" rx="10" fill="url(#diagonalHatch)" opacity="0.7"/>
<text x="1070" y="537" text-anchor="end" class="small">not run for this benchmark</text>
<text x="264" y="579" text-anchor="end" class="label">Llama-S</text>
<rect x="280" y="560" width="800" height="28" rx="10" fill="#e2e8f0"/>
<rect x="280" y="560" width="173.14" height="28" rx="10" fill="#c2410c"/>
<text x="463.14" y="579" text-anchor="start" class="label">21.6%</text>
<text x="264" y="621" text-anchor="end" class="label">Gemma-S</text>
<rect x="280" y="602" width="800" height="28" rx="10" fill="#e2e8f0"/>
<rect x="280" y="602" width="333.49" height="28" rx="10" fill="#7c3aed"/>
<text x="623.49" y="621" text-anchor="start" class="label">41.7%</text>
<rect x="42" y="640" width="1136" height="212" rx="18" class="subpanel"/>
<text x="48" y="668" class="axis">Value Kaleidoscope</text>
<text x="48" y="688" class="subtitle">Average of relevance and valence accuracy</text>
<text x="1080" y="668" text-anchor="end" class="small">Accuracy</text>
<line x1="280.00" y1="702" x2="280.00" y2="884" class="guide"/>
<text x="280.00" y="694" text-anchor="middle" class="small">0%</text>
<line x1="480.00" y1="702" x2="480.00" y2="884" class="guide"/>
<text x="480.00" y="694" text-anchor="middle" class="small">25%</text>
<line x1="680.00" y1="702" x2="680.00" y2="884" class="guide"/>
<text x="680.00" y="694" text-anchor="middle" class="small">50%</text>
<line x1="880.00" y1="702" x2="880.00" y2="884" class="guide"/>
<text x="880.00" y="694" text-anchor="middle" class="small">75%</text>
<line x1="1080.00" y1="702" x2="1080.00" y2="884" class="guide"/>
<text x="1080.00" y="694" text-anchor="middle" class="small">100%</text>
<text x="264" y="733" text-anchor="end" class="label">Qwen-S</text>
<rect x="280" y="714" width="800" height="28" rx="10" fill="#e2e8f0"/>
<rect x="280" y="714" width="545.92" height="28" rx="10" fill="#0f766e"/>
<text x="835.92" y="733" text-anchor="start" class="label">68.2%</text>
<text x="264" y="775" text-anchor="end" class="label">DeepSeek-L</text>
<rect x="280" y="756" width="800" height="28" rx="10" fill="#e2e8f0"/>
<rect x="280" y="756" width="507.74" height="28" rx="10" fill="#2563eb"/>
<text x="797.74" y="775" text-anchor="start" class="label">63.5%</text>
<text x="264" y="817" text-anchor="end" class="label">Llama-S</text>
<rect x="280" y="798" width="800" height="28" rx="10" fill="#e2e8f0"/>
<rect x="280" y="798" width="422.87" height="28" rx="10" fill="#c2410c"/>
<text x="712.87" y="817" text-anchor="start" class="label">52.9%</text>
<text x="264" y="859" text-anchor="end" class="label">Gemma-S</text>
<rect x="280" y="840" width="800" height="28" rx="10" fill="#e2e8f0"/>
<rect x="280" y="840" width="474.13" height="28" rx="10" fill="#7c3aed"/>
<text x="764.13" y="859" text-anchor="start" class="label">59.3%</text>
</svg>
