<svg xmlns="http://www.w3.org/2000/svg" width="1220" height="932" viewBox="0 0 1220 932" role="img">
<defs>
<linearGradient id="panelGradient" x1="0" x2="0" y1="0" y2="1">
<stop offset="0%" stop-color="#ffffff"/>
<stop offset="100%" stop-color="#f8fafc"/>
</linearGradient>
<pattern id="diagonalHatch" width="8" height="8" patternUnits="userSpaceOnUse" patternTransform="rotate(45)">
<line x1="0" y1="0" x2="0" y2="8" stroke="#cdd6e1" stroke-width="3"/>
</pattern>
<filter id="softShadow" x="-20%" y="-20%" width="140%" height="140%">
<feDropShadow dx="0" dy="6" stdDeviation="10" flood-color="#9fb0c2" flood-opacity="0.18"/>
</filter>
<style>
.canvas { fill: #f3f6fa; }
.title { font: 700 26px 'IBM Plex Sans', 'Helvetica Neue', Arial, sans-serif; fill: #12263a; }
.subtitle { font: 400 14px 'IBM Plex Sans', 'Helvetica Neue', Arial, sans-serif; fill: #5c6b7a; }
.axis { font: 600 14px 'IBM Plex Sans', 'Helvetica Neue', Arial, sans-serif; fill: #22313f; }
.label { font: 500 13px 'IBM Plex Sans', 'Helvetica Neue', Arial, sans-serif; fill: #22313f; }
.metric { font: 700 20px 'IBM Plex Sans', 'Helvetica Neue', Arial, sans-serif; fill: #12263a; }
.celltext { font: 700 16px 'IBM Plex Sans', 'Helvetica Neue', Arial, sans-serif; fill: #ffffff; }
.celltext-dark { font: 700 16px 'IBM Plex Sans', 'Helvetica Neue', Arial, sans-serif; fill: #173042; }
.cellsub { font: 500 11px 'IBM Plex Sans', 'Helvetica Neue', Arial, sans-serif; fill: rgba(255,255,255,0.88); }
.cellsub-dark { font: 600 11px 'IBM Plex Sans', 'Helvetica Neue', Arial, sans-serif; fill: #385062; }
.body { font: 500 12px 'IBM Plex Sans', 'Helvetica Neue', Arial, sans-serif; fill: #22313f; }
.small { font: 500 11px 'IBM Plex Sans', 'Helvetica Neue', Arial, sans-serif; fill: #5c6b7a; }
.tiny { font: 600 10px 'IBM Plex Sans', 'Helvetica Neue', Arial, sans-serif; fill: #6b7c8f; letter-spacing: 0.04em; }
.grid { fill: #ffffff; stroke: #d7dee6; stroke-width: 1.25; }
.panel { fill: url(#panelGradient); stroke: #dbe4ee; stroke-width: 1.25; filter: url(#softShadow); }
.subpanel { fill: #ffffff; stroke: #e2e8f0; stroke-width: 1; }
.legend-card { fill: #ffffff; stroke: #dbe4ee; stroke-width: 1; }
.guide { stroke: #d7dee6; stroke-width: 1; stroke-dasharray: 4 6; }
.baseline { stroke: #aab7c6; stroke-width: 1.1; }
.muted-cell { fill: #eef2f7; stroke: #d7dee6; stroke-width: 1; }
.muted-bar { fill: #ecf1f6; stroke: #d7dee6; stroke-width: 1; }
.outline { stroke: rgba(255,255,255,0.9); stroke-width: 1; }
</style>
</defs>
<rect x="0" y="0" width="1220" height="932" class="canvas"/>
<rect x="24" y="24" width="1172" height="884" rx="22" class="panel"/>
<title>Current comparable accuracy heatmap</title>
<desc>Heatmap of the latest available comparable accuracy metrics across completed and in-progress family-size lines.</desc>
<text x="48" y="64" class="title">Current Comparable Accuracy Heatmap</text>
<text x="48" y="88" class="subtitle">Rows cover every line with at least one current comparable metric. Hatched cells mark benchmarks that are incomplete or were withdrawn from direct comparison after response-format validation.</text>
<text x="430.0" y="126" text-anchor="middle" class="axis">UniMoral action</text>
<text x="690.0" y="126" text-anchor="middle" class="axis">SMID average</text>
<text x="950.0" y="126" text-anchor="middle" class="axis">Value Kaleidoscope average</text>
<text x="276" y="191.0" text-anchor="end" class="axis">Qwen-S</text>
<rect x="300" y="148" width="246" height="62" rx="16" fill="#2f787f" stroke="#ffffff" stroke-width="1"/>
<text x="423.0" y="182" text-anchor="middle" class="celltext">64.7%</text>
<text x="423.0" y="203" text-anchor="middle" class="cellsub">Qwen S</text>
<rect x="560" y="148" width="246" height="62" rx="16" fill="#aec1b3" stroke="#ffffff" stroke-width="1"/>
<text x="683.0" y="182" text-anchor="middle" class="celltext-dark">36.8%</text>
<text x="683.0" y="203" text-anchor="middle" class="cellsub-dark">Qwen S</text>
<rect x="820" y="148" width="246" height="62" rx="16" fill="#206f78" stroke="#ffffff" stroke-width="1"/>
<text x="943.0" y="182" text-anchor="middle" class="celltext">68.2%</text>
<text x="943.0" y="203" text-anchor="middle" class="cellsub">Qwen S</text>
<text x="276" y="267.0" text-anchor="end" class="axis">DeepSeek-L</text>
<rect x="300" y="224" width="246" height="62" rx="16" fill="#1f6f78" stroke="#ffffff" stroke-width="1"/>
<text x="423.0" y="258" text-anchor="middle" class="celltext">68.4%</text>
<text x="423.0" y="279" text-anchor="middle" class="cellsub">DeepSeek L</text>
<rect x="560" y="224" width="246" height="62" rx="16" class="muted-cell"/>
<rect x="560" y="224" width="246" height="62" rx="16" fill="url(#diagonalHatch)" opacity="0.8"/>
<text x="683.0" y="258" text-anchor="middle" class="label">n/a</text>
<text x="683.0" y="279" text-anchor="middle" class="small">no current result</text>
<rect x="820" y="224" width="246" height="62" rx="16" fill="#357c81" stroke="#ffffff" stroke-width="1"/>
<text x="943.0" y="258" text-anchor="middle" class="celltext">63.5%</text>
<text x="943.0" y="279" text-anchor="middle" class="cellsub">DeepSeek L</text>
<text x="276" y="343.0" text-anchor="end" class="axis">Llama-S</text>
<rect x="300" y="300" width="246" height="62" rx="16" fill="#2f787f" stroke="#ffffff" stroke-width="1"/>
<text x="423.0" y="334" text-anchor="middle" class="celltext">64.8%</text>
<text x="423.0" y="355" text-anchor="middle" class="cellsub">Llama S</text>
<rect x="560" y="300" width="246" height="62" rx="16" fill="#f2e8cf" stroke="#ffffff" stroke-width="1"/>
<text x="683.0" y="334" text-anchor="middle" class="celltext-dark">21.6%</text>
<text x="683.0" y="355" text-anchor="middle" class="cellsub-dark">Llama S</text>
<rect x="820" y="300" width="246" height="62" rx="16" fill="#659795" stroke="#ffffff" stroke-width="1"/>
<text x="943.0" y="334" text-anchor="middle" class="celltext">52.9%</text>
<text x="943.0" y="355" text-anchor="middle" class="cellsub">Llama S</text>
<text x="276" y="419.0" text-anchor="end" class="axis">Llama-L</text>
<rect x="300" y="376" width="246" height="62" rx="16" class="muted-cell"/>
<rect x="300" y="376" width="246" height="62" rx="16" fill="url(#diagonalHatch)" opacity="0.8"/>
<text x="423.0" y="410" text-anchor="middle" class="label">n/a</text>
<text x="423.0" y="431" text-anchor="middle" class="small">no current result</text>
<rect x="560" y="376" width="246" height="62" rx="16" fill="#a5bcaf" stroke="#ffffff" stroke-width="1"/>
<text x="683.0" y="410" text-anchor="middle" class="celltext-dark">38.6%</text>
<text x="683.0" y="431" text-anchor="middle" class="cellsub-dark">Llama L</text>
<rect x="820" y="376" width="246" height="62" rx="16" class="muted-cell"/>
<rect x="820" y="376" width="246" height="62" rx="16" fill="url(#diagonalHatch)" opacity="0.8"/>
<text x="943.0" y="410" text-anchor="middle" class="label">n/a</text>
<text x="943.0" y="431" text-anchor="middle" class="small">no current result</text>
<text x="276" y="495.0" text-anchor="end" class="axis">Gemma-S</text>
<rect x="300" y="452" width="246" height="62" rx="16" fill="#357c81" stroke="#ffffff" stroke-width="1"/>
<text x="423.0" y="486" text-anchor="middle" class="celltext">63.5%</text>
<text x="423.0" y="507" text-anchor="middle" class="cellsub">Gemma S</text>
<rect x="560" y="452" width="246" height="62" rx="16" fill="#97b4aa" stroke="#ffffff" stroke-width="1"/>
<text x="683.0" y="486" text-anchor="middle" class="celltext-dark">41.7%</text>
<text x="683.0" y="507" text-anchor="middle" class="cellsub-dark">Gemma S</text>
<rect x="820" y="452" width="246" height="62" rx="16" fill="#488789" stroke="#ffffff" stroke-width="1"/>
<text x="943.0" y="486" text-anchor="middle" class="celltext">59.3%</text>
<text x="943.0" y="507" text-anchor="middle" class="cellsub">Gemma S</text>
<text x="276" y="571.0" text-anchor="end" class="axis">Gemma-M</text>
<rect x="300" y="528" width="246" height="62" rx="16" fill="#29747c" stroke="#ffffff" stroke-width="1"/>
<text x="423.0" y="562" text-anchor="middle" class="celltext">66.3%</text>
<text x="423.0" y="583" text-anchor="middle" class="cellsub">Gemma M</text>
<rect x="560" y="528" width="246" height="62" rx="16" fill="#b0c2b4" stroke="#ffffff" stroke-width="1"/>
<text x="683.0" y="562" text-anchor="middle" class="celltext-dark">36.4%</text>
<text x="683.0" y="583" text-anchor="middle" class="cellsub-dark">Gemma M</text>
<rect x="820" y="528" width="246" height="62" rx="16" fill="#28747c" stroke="#ffffff" stroke-width="1"/>
<text x="943.0" y="562" text-anchor="middle" class="celltext">66.4%</text>
<text x="943.0" y="583" text-anchor="middle" class="cellsub">Gemma M</text>
<text x="276" y="647.0" text-anchor="end" class="axis">Gemma-L</text>
<rect x="300" y="604" width="246" height="62" rx="16" fill="#29757c" stroke="#ffffff" stroke-width="1"/>
<text x="423.0" y="638" text-anchor="middle" class="celltext">66.1%</text>
<text x="423.0" y="659" text-anchor="middle" class="cellsub">Gemma L</text>
<rect x="560" y="604" width="246" height="62" rx="16" fill="#9ab5ab" stroke="#ffffff" stroke-width="1"/>
<text x="683.0" y="638" text-anchor="middle" class="celltext-dark">41.2%</text>
<text x="683.0" y="659" text-anchor="middle" class="cellsub-dark">Gemma L</text>
<rect x="820" y="604" width="246" height="62" rx="16" fill="#2b767d" stroke="#ffffff" stroke-width="1"/>
<text x="943.0" y="638" text-anchor="middle" class="celltext">65.6%</text>
<text x="943.0" y="659" text-anchor="middle" class="cellsub">Gemma L</text>
<rect x="540" y="802" width="446" height="86" rx="16" class="legend-card"/>
<text x="560" y="820" class="axis">Accuracy scale</text>
<text x="560" y="836" class="small">Lighter cells mean lower accuracy; darker cells mean higher accuracy.</text>
<rect x="560.00" y="848" width="31.00" height="16" fill="#f2e8cf" stroke="#ffffff" stroke-width="0.6"/>
<rect x="590.00" y="848" width="31.00" height="16" fill="#dfddc7" stroke="#ffffff" stroke-width="0.6"/>
<rect x="620.00" y="848" width="31.00" height="16" fill="#ccd2bf" stroke="#ffffff" stroke-width="0.6"/>
<rect x="650.00" y="848" width="31.00" height="16" fill="#b8c7b7" stroke="#ffffff" stroke-width="0.6"/>
<rect x="680.00" y="848" width="31.00" height="16" fill="#a5bcaf" stroke="#ffffff" stroke-width="0.6"/>
<rect x="710.00" y="848" width="31.00" height="16" fill="#92b1a7" stroke="#ffffff" stroke-width="0.6"/>
<rect x="740.00" y="848" width="31.00" height="16" fill="#7fa6a0" stroke="#ffffff" stroke-width="0.6"/>
<rect x="770.00" y="848" width="31.00" height="16" fill="#6c9b98" stroke="#ffffff" stroke-width="0.6"/>
<rect x="800.00" y="848" width="31.00" height="16" fill="#599090" stroke="#ffffff" stroke-width="0.6"/>
<rect x="830.00" y="848" width="31.00" height="16" fill="#458588" stroke="#ffffff" stroke-width="0.6"/>
<rect x="860.00" y="848" width="31.00" height="16" fill="#327a80" stroke="#ffffff" stroke-width="0.6"/>
<rect x="890.00" y="848" width="31.00" height="16" fill="#1f6f78" stroke="#ffffff" stroke-width="0.6"/>
<text x="560" y="882" class="small">21.6%</text>
<text x="920" y="882" text-anchor="end" class="small">68.4%</text>
<rect x="942" y="844" width="24" height="24" rx="6" class="muted-cell"/>
<rect x="942" y="844" width="24" height="24" rx="6" fill="url(#diagonalHatch)" opacity="0.8"/>
<text x="976" y="862" class="small">no current result</text>
</svg>
