<svg xmlns="http://www.w3.org/2000/svg" width="1220" height="670" viewBox="0 0 1220 670" role="img">
<defs>
<linearGradient id="panelGradient" x1="0" x2="0" y1="0" y2="1">
<stop offset="0%" stop-color="#ffffff"/>
<stop offset="100%" stop-color="#f8fafc"/>
</linearGradient>
<pattern id="diagonalHatch" width="8" height="8" patternUnits="userSpaceOnUse" patternTransform="rotate(45)">
<line x1="0" y1="0" x2="0" y2="8" stroke="#cdd6e1" stroke-width="3"/>
</pattern>
<filter id="softShadow" x="-20%" y="-20%" width="140%" height="140%">
<feDropShadow dx="0" dy="6" stdDeviation="10" flood-color="#9fb0c2" flood-opacity="0.18"/>
</filter>
<style>
.canvas { fill: #f3f6fa; }
.title { font: 700 26px 'IBM Plex Sans', 'Helvetica Neue', Arial, sans-serif; fill: #12263a; }
.subtitle { font: 400 14px 'IBM Plex Sans', 'Helvetica Neue', Arial, sans-serif; fill: #5c6b7a; }
.axis { font: 600 14px 'IBM Plex Sans', 'Helvetica Neue', Arial, sans-serif; fill: #22313f; }
.label { font: 500 13px 'IBM Plex Sans', 'Helvetica Neue', Arial, sans-serif; fill: #22313f; }
.metric { font: 700 20px 'IBM Plex Sans', 'Helvetica Neue', Arial, sans-serif; fill: #12263a; }
.celltext { font: 700 16px 'IBM Plex Sans', 'Helvetica Neue', Arial, sans-serif; fill: #ffffff; }
.celltext-dark { font: 700 16px 'IBM Plex Sans', 'Helvetica Neue', Arial, sans-serif; fill: #173042; }
.cellsub { font: 500 11px 'IBM Plex Sans', 'Helvetica Neue', Arial, sans-serif; fill: rgba(255,255,255,0.88); }
.cellsub-dark { font: 600 11px 'IBM Plex Sans', 'Helvetica Neue', Arial, sans-serif; fill: #385062; }
.body { font: 500 12px 'IBM Plex Sans', 'Helvetica Neue', Arial, sans-serif; fill: #22313f; }
.small { font: 500 11px 'IBM Plex Sans', 'Helvetica Neue', Arial, sans-serif; fill: #5c6b7a; }
.tiny { font: 600 10px 'IBM Plex Sans', 'Helvetica Neue', Arial, sans-serif; fill: #6b7c8f; letter-spacing: 0.04em; }
.grid { fill: #ffffff; stroke: #d7dee6; stroke-width: 1.25; }
.panel { fill: url(#panelGradient); stroke: #dbe4ee; stroke-width: 1.25; filter: url(#softShadow); }
.subpanel { fill: #ffffff; stroke: #e2e8f0; stroke-width: 1; }
.legend-card { fill: #ffffff; stroke: #dbe4ee; stroke-width: 1; }
.guide { stroke: #d7dee6; stroke-width: 1; stroke-dasharray: 4 6; }
.baseline { stroke: #aab7c6; stroke-width: 1.1; }
.muted-cell { fill: #eef2f7; stroke: #d7dee6; stroke-width: 1; }
.muted-bar { fill: #ecf1f6; stroke: #d7dee6; stroke-width: 1; }
.outline { stroke: rgba(255,255,255,0.9); stroke-width: 1; }
</style>
</defs>
<rect x="0" y="0" width="1220" height="670" class="canvas"/>
<rect x="24" y="24" width="1172" height="622" rx="22" class="panel"/>
<title>Sample volume by benchmark</title>
<desc>Sample counts in the frozen Option 1 release, with paper-setup and proxy samples separated by benchmark.</desc>
<text x="48" y="64" class="title">Sample Volume by Benchmark</text>
<text x="48" y="88" class="subtitle">The closed Option 1 release contains 302,776 evaluated samples. Bars show each benchmark share on a common scale, with the paper-setup and proxy split preserved.</text>
<text x="280" y="146" class="tiny">COMMON SAMPLE SCALE</text>
<text x="888" y="146" class="tiny">BREAKDOWN</text>
<line x1="280.00" y1="174" x2="280.00" y2="562" class="guide"/>
<text x="280.00" y="164" text-anchor="middle" class="small">0</text>
<line x1="410.00" y1="174" x2="410.00" y2="562" class="guide"/>
<text x="410.00" y="164" text-anchor="middle" class="small">50,000</text>
<line x1="540.00" y1="174" x2="540.00" y2="562" class="guide"/>
<text x="540.00" y="164" text-anchor="middle" class="small">100,000</text>
<line x1="670.00" y1="174" x2="670.00" y2="562" class="guide"/>
<text x="670.00" y="164" text-anchor="middle" class="small">150,000</text>
<line x1="800.00" y1="174" x2="800.00" y2="562" class="guide"/>
<text x="800.00" y="164" text-anchor="middle" class="small">200,000</text>
<text x="260" y="202" text-anchor="end" class="axis">Value Kaleidoscope</text>
<rect x="280" y="184" width="520" height="26" rx="10" fill="#e2e8f0"/>
<rect x="280" y="184" width="511.06" height="26" rx="10" fill="#2f855a"/>
<text x="870" y="201" text-anchor="end" class="metric">196,560</text>
<text x="870" y="219" text-anchor="end" class="small">64.9% of release</text>
<rect x="888" y="176" width="250" height="52" rx="14" class="subpanel"/>
<rect x="904" y="190" width="10" height="10" rx="2.5" fill="#2f855a"/>
<text x="924" y="199" class="body">Paper setup: 196,560</text>
<rect x="904" y="211" width="10" height="10" rx="2.5" fill="#b7791f"/>
<text x="924" y="220" class="body">Proxy: 0</text>
<text x="260" y="288" text-anchor="end" class="axis">Denevil</text>
<rect x="280" y="270" width="520" height="26" rx="10" fill="#e2e8f0"/>
<rect x="280.00" y="270" width="160.04" height="26" rx="10" fill="#b7791f"/>
<text x="870" y="287" text-anchor="end" class="metric">61,554</text>
<text x="870" y="305" text-anchor="end" class="small">20.3% of release</text>
<rect x="888" y="262" width="250" height="52" rx="14" class="subpanel"/>
<rect x="904" y="276" width="10" height="10" rx="2.5" fill="#2f855a"/>
<text x="924" y="285" class="body">Paper setup: 0</text>
<rect x="904" y="297" width="10" height="10" rx="2.5" fill="#b7791f"/>
<text x="924" y="306" class="body">Proxy: 61,554</text>
<text x="260" y="374" text-anchor="end" class="axis">UniMoral</text>
<rect x="280" y="356" width="520" height="26" rx="10" fill="#e2e8f0"/>
<rect x="280" y="356" width="68.52" height="26" rx="10" fill="#2f855a"/>
<text x="870" y="373" text-anchor="end" class="metric">26,352</text>
<text x="870" y="391" text-anchor="end" class="small">8.7% of release</text>
<rect x="888" y="348" width="250" height="52" rx="14" class="subpanel"/>
<rect x="904" y="362" width="10" height="10" rx="2.5" fill="#2f855a"/>
<text x="924" y="371" class="body">Paper setup: 26,352</text>
<rect x="904" y="383" width="10" height="10" rx="2.5" fill="#b7791f"/>
<text x="924" y="392" class="body">Proxy: 0</text>
<text x="260" y="460" text-anchor="end" class="axis">SMID</text>
<rect x="280" y="442" width="520" height="26" rx="10" fill="#e2e8f0"/>
<rect x="280" y="442" width="30.59" height="26" rx="10" fill="#2f855a"/>
<text x="870" y="459" text-anchor="end" class="metric">11,764</text>
<text x="870" y="477" text-anchor="end" class="small">3.9% of release</text>
<rect x="888" y="434" width="250" height="52" rx="14" class="subpanel"/>
<rect x="904" y="448" width="10" height="10" rx="2.5" fill="#2f855a"/>
<text x="924" y="457" class="body">Paper setup: 11,764</text>
<rect x="904" y="469" width="10" height="10" rx="2.5" fill="#b7791f"/>
<text x="924" y="478" class="body">Proxy: 0</text>
<text x="260" y="546" text-anchor="end" class="axis">CCD-Bench</text>
<rect x="280" y="528" width="520" height="26" rx="10" fill="#e2e8f0"/>
<rect x="280" y="528" width="17.02" height="26" rx="10" fill="#2f855a"/>
<text x="870" y="545" text-anchor="end" class="metric">6,546</text>
<text x="870" y="563" text-anchor="end" class="small">2.2% of release</text>
<rect x="888" y="520" width="250" height="52" rx="14" class="subpanel"/>
<rect x="904" y="534" width="10" height="10" rx="2.5" fill="#2f855a"/>
<text x="924" y="543" class="body">Paper setup: 6,546</text>
<rect x="904" y="555" width="10" height="10" rx="2.5" fill="#b7791f"/>
<text x="924" y="564" class="body">Proxy: 0</text>
<rect x="48" y="578" width="18" height="18" rx="4" fill="#2f855a"/>
<text x="76" y="592" class="label">paper-setup samples</text>
<rect x="286" y="578" width="18" height="18" rx="4" fill="#b7791f"/>
<text x="314" y="592" class="label">proxy samples</text>
</svg>
