<svg xmlns="http://www.w3.org/2000/svg" width="1180" height="560" viewBox="0 0 1180 560" role="img">
<defs>
<style>
.title { font: 700 26px 'IBM Plex Sans', 'Helvetica Neue', Arial, sans-serif; fill: #12263a; }
.subtitle { font: 400 14px 'IBM Plex Sans', 'Helvetica Neue', Arial, sans-serif; fill: #5c6b7a; }
.axis { font: 600 14px 'IBM Plex Sans', 'Helvetica Neue', Arial, sans-serif; fill: #22313f; }
.label { font: 500 13px 'IBM Plex Sans', 'Helvetica Neue', Arial, sans-serif; fill: #22313f; }
.celltext { font: 700 16px 'IBM Plex Sans', 'Helvetica Neue', Arial, sans-serif; fill: #ffffff; }
.cellsub { font: 500 11px 'IBM Plex Sans', 'Helvetica Neue', Arial, sans-serif; fill: rgba(255,255,255,0.88); }
.body { font: 500 12px 'IBM Plex Sans', 'Helvetica Neue', Arial, sans-serif; fill: #22313f; }
.small { font: 500 11px 'IBM Plex Sans', 'Helvetica Neue', Arial, sans-serif; fill: #5c6b7a; }
.grid { fill: #ffffff; stroke: #d7dee6; stroke-width: 1.25; }
.panel { fill: #f8fafc; stroke: #e2e8f0; stroke-width: 1.25; }
</style>
</defs>
<rect x="24" y="24" width="1132" height="512" rx="22" class="panel"/>
<text x="48" y="64" class="title">Option 1 Accuracy Heatmap</text>
<text x="48" y="88" class="subtitle">Only tasks with directly comparable accuracy metrics are shown. Missing cells indicate benchmarks not run in the current closed slice.</text>
<text x="295.0" y="110" text-anchor="middle" class="axis">UniMoral</text>
<text x="295.0" y="128" text-anchor="middle" class="small">action</text>
<text x="465.0" y="110" text-anchor="middle" class="axis">SMID</text>
<text x="465.0" y="128" text-anchor="middle" class="small">rating</text>
<text x="635.0" y="110" text-anchor="middle" class="axis">SMID</text>
<text x="635.0" y="128" text-anchor="middle" class="small">foundation</text>
<text x="805.0" y="110" text-anchor="middle" class="axis">Value</text>
<text x="805.0" y="128" text-anchor="middle" class="small">relevance</text>
<text x="975.0" y="110" text-anchor="middle" class="axis">Value</text>
<text x="975.0" y="128" text-anchor="middle" class="small">valence</text>
<text x="186" y="177.0" text-anchor="end" class="axis">Qwen</text>
<rect x="210" y="132" width="156" height="64" rx="16" fill="#377d82"/>
<text x="288.0" y="168" text-anchor="middle" class="celltext">64.7%</text>
<text x="288.0" y="190" text-anchor="middle" class="cellsub">stderr 0.005</text>
<rect x="380" y="132" width="156" height="64" rx="16" fill="#f2e8cf"/>
<text x="458.0" y="168" text-anchor="middle" class="celltext">25.8%</text>
<text x="458.0" y="190" text-anchor="middle" class="cellsub">stderr 0.008</text>
<rect x="550" y="132" width="156" height="64" rx="16" fill="#88aba3"/>
<text x="628.0" y="168" text-anchor="middle" class="celltext">47.8%</text>
<text x="628.0" y="190" text-anchor="middle" class="cellsub">stderr 0.009</text>
<rect x="720" y="132" width="156" height="64" rx="16" fill="#2e787e"/>
<text x="798.0" y="168" text-anchor="middle" class="celltext">66.7%</text>
<text x="798.0" y="190" text-anchor="middle" class="cellsub">stderr 0.002</text>
<rect x="890" y="132" width="156" height="64" rx="16" fill="#1f6f78"/>
<text x="968.0" y="168" text-anchor="middle" class="celltext">69.8%</text>
<text x="968.0" y="190" text-anchor="middle" class="cellsub">stderr 0.003</text>
<text x="186" y="255.0" text-anchor="end" class="axis">DeepSeek</text>
<rect x="210" y="210" width="156" height="64" rx="16" fill="#26737b"/>
<text x="288.0" y="246" text-anchor="middle" class="celltext">68.4%</text>
<text x="288.0" y="268" text-anchor="middle" class="cellsub">stderr 0.005</text>
<rect x="380" y="210" width="156" height="64" rx="16" fill="#dbe4ee"/>
<text x="458.0" y="250" text-anchor="middle" class="label">n/a</text>
<rect x="550" y="210" width="156" height="64" rx="16" fill="#dbe4ee"/>
<text x="628.0" y="250" text-anchor="middle" class="label">n/a</text>
<rect x="720" y="210" width="156" height="64" rx="16" fill="#2c767d"/>
<text x="798.0" y="246" text-anchor="middle" class="celltext">67.1%</text>
<text x="798.0" y="268" text-anchor="middle" class="cellsub">stderr 0.002</text>
<rect x="890" y="210" width="156" height="64" rx="16" fill="#4f8a8c"/>
<text x="968.0" y="246" text-anchor="middle" class="celltext">59.8%</text>
<text x="968.0" y="268" text-anchor="middle" class="cellsub">stderr 0.003</text>
<text x="186" y="333.0" text-anchor="end" class="axis">Gemma</text>
<rect x="210" y="288" width="156" height="64" rx="16" fill="#3d8084"/>
<text x="288.0" y="324" text-anchor="middle" class="celltext">63.5%</text>
<text x="288.0" y="346" text-anchor="middle" class="cellsub">stderr 0.005</text>
<rect x="380" y="288" width="156" height="64" rx="16" fill="#c1ccbb"/>
<text x="458.0" y="324" text-anchor="middle" class="celltext">35.9%</text>
<text x="458.0" y="346" text-anchor="middle" class="cellsub">stderr 0.009</text>
<rect x="550" y="288" width="156" height="64" rx="16" fill="#8aaca4"/>
<text x="628.0" y="324" text-anchor="middle" class="celltext">47.5%</text>
<text x="628.0" y="346" text-anchor="middle" class="cellsub">stderr 0.009</text>
<rect x="720" y="288" width="156" height="64" rx="16" fill="#4b888a"/>
<text x="798.0" y="324" text-anchor="middle" class="celltext">60.6%</text>
<text x="798.0" y="346" text-anchor="middle" class="cellsub">stderr 0.002</text>
<rect x="890" y="288" width="156" height="64" rx="16" fill="#58908f"/>
<text x="968.0" y="324" text-anchor="middle" class="celltext">57.9%</text>
<text x="968.0" y="346" text-anchor="middle" class="cellsub">stderr 0.003</text>
<rect x="760.00" y="484" width="3.70" height="14" fill="#f2e8cf"/>
<rect x="762.90" y="484" width="3.70" height="14" fill="#f0e7ce"/>
<rect x="765.80" y="484" width="3.70" height="14" fill="#eee6cd"/>
<rect x="768.70" y="484" width="3.70" height="14" fill="#ece4cc"/>
<rect x="771.60" y="484" width="3.70" height="14" fill="#e9e3cb"/>
<rect x="774.50" y="484" width="3.70" height="14" fill="#e7e2cb"/>
<rect x="777.40" y="484" width="3.70" height="14" fill="#e5e1ca"/>
<rect x="780.30" y="484" width="3.70" height="14" fill="#e3dfc9"/>
<rect x="783.20" y="484" width="3.70" height="14" fill="#e1dec8"/>
<rect x="786.10" y="484" width="3.70" height="14" fill="#dfddc7"/>
<rect x="789.00" y="484" width="3.70" height="14" fill="#dddcc6"/>
<rect x="791.90" y="484" width="3.70" height="14" fill="#dbdbc5"/>
<rect x="794.80" y="484" width="3.70" height="14" fill="#d8d9c4"/>
<rect x="797.70" y="484" width="3.70" height="14" fill="#d6d8c4"/>
<rect x="800.60" y="484" width="3.70" height="14" fill="#d4d7c3"/>
<rect x="803.50" y="484" width="3.70" height="14" fill="#d2d6c2"/>
<rect x="806.40" y="484" width="3.70" height="14" fill="#d0d4c1"/>
<rect x="809.30" y="484" width="3.70" height="14" fill="#ced3c0"/>
<rect x="812.20" y="484" width="3.70" height="14" fill="#ccd2bf"/>
<rect x="815.10" y="484" width="3.70" height="14" fill="#cad1be"/>
<rect x="818.00" y="484" width="3.70" height="14" fill="#c7d0bd"/>
<rect x="820.90" y="484" width="3.70" height="14" fill="#c5cebd"/>
<rect x="823.80" y="484" width="3.70" height="14" fill="#c3cdbc"/>
<rect x="826.70" y="484" width="3.70" height="14" fill="#c1ccbb"/>
<rect x="829.60" y="484" width="3.70" height="14" fill="#bfcbba"/>
<rect x="832.50" y="484" width="3.70" height="14" fill="#bdc9b9"/>
<rect x="835.40" y="484" width="3.70" height="14" fill="#bbc8b8"/>
<rect x="838.30" y="484" width="3.70" height="14" fill="#b8c7b7"/>
<rect x="841.20" y="484" width="3.70" height="14" fill="#b6c6b6"/>
<rect x="844.10" y="484" width="3.70" height="14" fill="#b4c5b6"/>
<rect x="847.00" y="484" width="3.70" height="14" fill="#b2c3b5"/>
<rect x="849.90" y="484" width="3.70" height="14" fill="#b0c2b4"/>
<rect x="852.80" y="484" width="3.70" height="14" fill="#aec1b3"/>
<rect x="855.70" y="484" width="3.70" height="14" fill="#acc0b2"/>
<rect x="858.60" y="484" width="3.70" height="14" fill="#aabeb1"/>
<rect x="861.50" y="484" width="3.70" height="14" fill="#a7bdb0"/>
<rect x="864.40" y="484" width="3.70" height="14" fill="#a5bcaf"/>
<rect x="867.30" y="484" width="3.70" height="14" fill="#a3bbae"/>
<rect x="870.20" y="484" width="3.70" height="14" fill="#a1baae"/>
<rect x="873.10" y="484" width="3.70" height="14" fill="#9fb8ad"/>
<rect x="876.00" y="484" width="3.70" height="14" fill="#9db7ac"/>
<rect x="878.90" y="484" width="3.70" height="14" fill="#9bb6ab"/>
<rect x="881.80" y="484" width="3.70" height="14" fill="#98b5aa"/>
<rect x="884.70" y="484" width="3.70" height="14" fill="#96b3a9"/>
<rect x="887.60" y="484" width="3.70" height="14" fill="#94b2a8"/>
<rect x="890.50" y="484" width="3.70" height="14" fill="#92b1a7"/>
<rect x="893.40" y="484" width="3.70" height="14" fill="#90b0a7"/>
<rect x="896.30" y="484" width="3.70" height="14" fill="#8eafa6"/>
<rect x="899.20" y="484" width="3.70" height="14" fill="#8cada5"/>
<rect x="902.10" y="484" width="3.70" height="14" fill="#8aaca4"/>
<rect x="905.00" y="484" width="3.70" height="14" fill="#87aba3"/>
<rect x="907.90" y="484" width="3.70" height="14" fill="#85aaa2"/>
<rect x="910.80" y="484" width="3.70" height="14" fill="#83a8a1"/>
<rect x="913.70" y="484" width="3.70" height="14" fill="#81a7a0"/>
<rect x="916.60" y="484" width="3.70" height="14" fill="#7fa6a0"/>
<rect x="919.50" y="484" width="3.70" height="14" fill="#7da59f"/>
<rect x="922.40" y="484" width="3.70" height="14" fill="#7ba49e"/>
<rect x="925.30" y="484" width="3.70" height="14" fill="#79a29d"/>
<rect x="928.20" y="484" width="3.70" height="14" fill="#76a19c"/>
<rect x="931.10" y="484" width="3.70" height="14" fill="#74a09b"/>
<rect x="934.00" y="484" width="3.70" height="14" fill="#729f9a"/>
<rect x="936.90" y="484" width="3.70" height="14" fill="#709d99"/>
<rect x="939.80" y="484" width="3.70" height="14" fill="#6e9c99"/>
<rect x="942.70" y="484" width="3.70" height="14" fill="#6c9b98"/>
<rect x="945.60" y="484" width="3.70" height="14" fill="#6a9a97"/>
<rect x="948.50" y="484" width="3.70" height="14" fill="#679996"/>
<rect x="951.40" y="484" width="3.70" height="14" fill="#659795"/>
<rect x="954.30" y="484" width="3.70" height="14" fill="#639694"/>
<rect x="957.20" y="484" width="3.70" height="14" fill="#619593"/>
<rect x="960.10" y="484" width="3.70" height="14" fill="#5f9492"/>
<rect x="963.00" y="484" width="3.70" height="14" fill="#5d9291"/>
<rect x="965.90" y="484" width="3.70" height="14" fill="#5b9191"/>
<rect x="968.80" y="484" width="3.70" height="14" fill="#599090"/>
<rect x="971.70" y="484" width="3.70" height="14" fill="#568f8f"/>
<rect x="974.60" y="484" width="3.70" height="14" fill="#548e8e"/>
<rect x="977.50" y="484" width="3.70" height="14" fill="#528c8d"/>
<rect x="980.40" y="484" width="3.70" height="14" fill="#508b8c"/>
<rect x="983.30" y="484" width="3.70" height="14" fill="#4e8a8b"/>
<rect x="986.20" y="484" width="3.70" height="14" fill="#4c898a"/>
<rect x="989.10" y="484" width="3.70" height="14" fill="#4a878a"/>
<rect x="992.00" y="484" width="3.70" height="14" fill="#478689"/>
<rect x="994.90" y="484" width="3.70" height="14" fill="#458588"/>
<rect x="997.80" y="484" width="3.70" height="14" fill="#438487"/>
<rect x="1000.70" y="484" width="3.70" height="14" fill="#418386"/>
<rect x="1003.60" y="484" width="3.70" height="14" fill="#3f8185"/>
<rect x="1006.50" y="484" width="3.70" height="14" fill="#3d8084"/>
<rect x="1009.40" y="484" width="3.70" height="14" fill="#3b7f83"/>
<rect x="1012.30" y="484" width="3.70" height="14" fill="#397e83"/>
<rect x="1015.20" y="484" width="3.70" height="14" fill="#367c82"/>
<rect x="1018.10" y="484" width="3.70" height="14" fill="#347b81"/>
<rect x="1021.00" y="484" width="3.70" height="14" fill="#327a80"/>
<rect x="1023.90" y="484" width="3.70" height="14" fill="#30797f"/>
<rect x="1026.80" y="484" width="3.70" height="14" fill="#2e787e"/>
<rect x="1029.70" y="484" width="3.70" height="14" fill="#2c767d"/>
<rect x="1032.60" y="484" width="3.70" height="14" fill="#2a757c"/>
<rect x="1035.50" y="484" width="3.70" height="14" fill="#28747c"/>
<rect x="1038.40" y="484" width="3.70" height="14" fill="#25737b"/>
<rect x="1041.30" y="484" width="3.70" height="14" fill="#23717a"/>
<rect x="1044.20" y="484" width="3.70" height="14" fill="#217079"/>
<rect x="1047.10" y="484" width="3.70" height="14" fill="#1f6f78"/>
<text x="760" y="474" class="small">Lower accuracy</text>
<text x="1050" y="474" text-anchor="end" class="small">Higher accuracy</text>
<text x="760" y="518" class="small">25.8%</text>
<text x="1050" y="518" text-anchor="end" class="small">69.8%</text>
</svg>
