<svg xmlns="http://www.w3.org/2000/svg" width="1220" height="760" viewBox="0 0 1220 760" role="img">
<defs>
<style>
.title { font: 700 26px 'IBM Plex Sans', 'Helvetica Neue', Arial, sans-serif; fill: #12263a; }
.subtitle { font: 400 14px 'IBM Plex Sans', 'Helvetica Neue', Arial, sans-serif; fill: #5c6b7a; }
.axis { font: 600 14px 'IBM Plex Sans', 'Helvetica Neue', Arial, sans-serif; fill: #22313f; }
.label { font: 500 13px 'IBM Plex Sans', 'Helvetica Neue', Arial, sans-serif; fill: #22313f; }
.celltext { font: 700 16px 'IBM Plex Sans', 'Helvetica Neue', Arial, sans-serif; fill: #ffffff; }
.cellsub { font: 500 11px 'IBM Plex Sans', 'Helvetica Neue', Arial, sans-serif; fill: rgba(255,255,255,0.88); }
.body { font: 500 12px 'IBM Plex Sans', 'Helvetica Neue', Arial, sans-serif; fill: #22313f; }
.small { font: 500 11px 'IBM Plex Sans', 'Helvetica Neue', Arial, sans-serif; fill: #5c6b7a; }
.grid { fill: #ffffff; stroke: #d7dee6; stroke-width: 1.25; }
.panel { fill: #f8fafc; stroke: #e2e8f0; stroke-width: 1.25; }
</style>
</defs>
<rect x="24" y="24" width="1172" height="712" rx="22" class="panel"/>
<text x="48" y="64" class="title">Comparable Accuracy by Benchmark</text>
<text x="48" y="88" class="subtitle">Each panel compares the currently completed family-size lines that share the same accuracy-based benchmark metric.</text>
<text x="48" y="130" class="axis">UniMoral</text>
<text x="48" y="150" class="subtitle">Action prediction accuracy</text>
<line x1="250.00" y1="164" x2="250.00" y2="300" stroke="#d7dee6" stroke-width="1"/>
<text x="250.00" y="156" text-anchor="middle" class="small">0%</text>
<line x1="465.00" y1="164" x2="465.00" y2="300" stroke="#d7dee6" stroke-width="1"/>
<text x="465.00" y="156" text-anchor="middle" class="small">25%</text>
<line x1="680.00" y1="164" x2="680.00" y2="300" stroke="#d7dee6" stroke-width="1"/>
<text x="680.00" y="156" text-anchor="middle" class="small">50%</text>
<line x1="895.00" y1="164" x2="895.00" y2="300" stroke="#d7dee6" stroke-width="1"/>
<text x="895.00" y="156" text-anchor="middle" class="small">75%</text>
<line x1="1110.00" y1="164" x2="1110.00" y2="300" stroke="#d7dee6" stroke-width="1"/>
<text x="1110.00" y="156" text-anchor="middle" class="small">100%</text>
<text x="234" y="195" text-anchor="end" class="label">Qwen-S</text>
<rect x="250" y="176" width="860" height="28" rx="10" fill="#e2e8f0"/>
<rect x="250" y="176" width="556.79" height="28" rx="10" fill="#0f766e"/>
<text x="816.79" y="195" class="label">64.7%</text>
<text x="234" y="237" text-anchor="end" class="label">DeepSeek-L</text>
<rect x="250" y="218" width="860" height="28" rx="10" fill="#e2e8f0"/>
<rect x="250" y="218" width="587.92" height="28" rx="10" fill="#1d4ed8"/>
<text x="847.92" y="237" class="label">68.4%</text>
<text x="234" y="279" text-anchor="end" class="label">Llama-S</text>
<rect x="250" y="260" width="860" height="28" rx="10" fill="#e2e8f0"/>
<rect x="250" y="260" width="557.28" height="28" rx="10" fill="#b45309"/>
<text x="817.28" y="279" class="label">64.8%</text>
<text x="234" y="321" text-anchor="end" class="label">Gemma-S</text>
<rect x="250" y="302" width="860" height="28" rx="10" fill="#e2e8f0"/>
<rect x="250" y="302" width="546.31" height="28" rx="10" fill="#7c3aed"/>
<text x="806.31" y="321" class="label">63.5%</text>
<text x="48" y="320" class="axis">SMID</text>
<text x="48" y="340" class="subtitle">Average of moral rating and foundation classification</text>
<line x1="250.00" y1="354" x2="250.00" y2="490" stroke="#d7dee6" stroke-width="1"/>
<text x="250.00" y="346" text-anchor="middle" class="small">0%</text>
<line x1="465.00" y1="354" x2="465.00" y2="490" stroke="#d7dee6" stroke-width="1"/>
<text x="465.00" y="346" text-anchor="middle" class="small">25%</text>
<line x1="680.00" y1="354" x2="680.00" y2="490" stroke="#d7dee6" stroke-width="1"/>
<text x="680.00" y="346" text-anchor="middle" class="small">50%</text>
<line x1="895.00" y1="354" x2="895.00" y2="490" stroke="#d7dee6" stroke-width="1"/>
<text x="895.00" y="346" text-anchor="middle" class="small">75%</text>
<line x1="1110.00" y1="354" x2="1110.00" y2="490" stroke="#d7dee6" stroke-width="1"/>
<text x="1110.00" y="346" text-anchor="middle" class="small">100%</text>
<text x="234" y="385" text-anchor="end" class="label">Qwen-S</text>
<rect x="250" y="366" width="860" height="28" rx="10" fill="#e2e8f0"/>
<rect x="250" y="366" width="316.54" height="28" rx="10" fill="#0f766e"/>
<text x="576.54" y="385" class="label">36.8%</text>
<text x="234" y="427" text-anchor="end" class="label">Llama-S</text>
<rect x="250" y="408" width="860" height="28" rx="10" fill="#e2e8f0"/>
<rect x="250" y="408" width="186.12" height="28" rx="10" fill="#b45309"/>
<text x="446.12" y="427" class="label">21.6%</text>
<text x="234" y="469" text-anchor="end" class="label">Gemma-S</text>
<rect x="250" y="450" width="860" height="28" rx="10" fill="#e2e8f0"/>
<rect x="250" y="450" width="358.50" height="28" rx="10" fill="#7c3aed"/>
<text x="618.50" y="469" class="label">41.7%</text>
<text x="48" y="510" class="axis">Value Kaleidoscope</text>
<text x="48" y="530" class="subtitle">Average of relevance and valence accuracy</text>
<line x1="250.00" y1="544" x2="250.00" y2="680" stroke="#d7dee6" stroke-width="1"/>
<text x="250.00" y="536" text-anchor="middle" class="small">0%</text>
<line x1="465.00" y1="544" x2="465.00" y2="680" stroke="#d7dee6" stroke-width="1"/>
<text x="465.00" y="536" text-anchor="middle" class="small">25%</text>
<line x1="680.00" y1="544" x2="680.00" y2="680" stroke="#d7dee6" stroke-width="1"/>
<text x="680.00" y="536" text-anchor="middle" class="small">50%</text>
<line x1="895.00" y1="544" x2="895.00" y2="680" stroke="#d7dee6" stroke-width="1"/>
<text x="895.00" y="536" text-anchor="middle" class="small">75%</text>
<line x1="1110.00" y1="544" x2="1110.00" y2="680" stroke="#d7dee6" stroke-width="1"/>
<text x="1110.00" y="536" text-anchor="middle" class="small">100%</text>
<text x="234" y="575" text-anchor="end" class="label">Qwen-S</text>
<rect x="250" y="556" width="860" height="28" rx="10" fill="#e2e8f0"/>
<rect x="250" y="556" width="586.87" height="28" rx="10" fill="#0f766e"/>
<text x="846.87" y="575" class="label">68.2%</text>
<text x="234" y="617" text-anchor="end" class="label">DeepSeek-L</text>
<rect x="250" y="598" width="860" height="28" rx="10" fill="#e2e8f0"/>
<rect x="250" y="598" width="545.82" height="28" rx="10" fill="#1d4ed8"/>
<text x="805.82" y="617" class="label">63.5%</text>
<text x="234" y="659" text-anchor="end" class="label">Llama-S</text>
<rect x="250" y="640" width="860" height="28" rx="10" fill="#e2e8f0"/>
<rect x="250" y="640" width="454.58" height="28" rx="10" fill="#b45309"/>
<text x="714.58" y="659" class="label">52.9%</text>
<text x="234" y="701" text-anchor="end" class="label">Gemma-S</text>
<rect x="250" y="682" width="860" height="28" rx="10" fill="#e2e8f0"/>
<rect x="250" y="682" width="509.69" height="28" rx="10" fill="#7c3aed"/>
<text x="769.69" y="701" class="label">59.3%</text>
<rect x="48" y="682" width="18" height="18" rx="4" fill="#0f766e"/>
<text x="76" y="696" class="label">Qwen-S</text>
<rect x="218" y="682" width="18" height="18" rx="4" fill="#1d4ed8"/>
<text x="246" y="696" class="label">DeepSeek-L</text>
<rect x="388" y="682" width="18" height="18" rx="4" fill="#b45309"/>
<text x="416" y="696" class="label">Llama-S</text>
<rect x="558" y="682" width="18" height="18" rx="4" fill="#7c3aed"/>
<text x="586" y="696" class="label">Gemma-S</text>
</svg>
