<svg xmlns="http://www.w3.org/2000/svg" width="1180" height="610" viewBox="0 0 1180 610" role="img">
<defs>
<style>
.title { font: 700 26px 'IBM Plex Sans', 'Helvetica Neue', Arial, sans-serif; fill: #12263a; }
.subtitle { font: 400 14px 'IBM Plex Sans', 'Helvetica Neue', Arial, sans-serif; fill: #5c6b7a; }
.axis { font: 600 14px 'IBM Plex Sans', 'Helvetica Neue', Arial, sans-serif; fill: #22313f; }
.label { font: 500 13px 'IBM Plex Sans', 'Helvetica Neue', Arial, sans-serif; fill: #22313f; }
.celltext { font: 700 16px 'IBM Plex Sans', 'Helvetica Neue', Arial, sans-serif; fill: #ffffff; }
.celltext-dark { font: 700 16px 'IBM Plex Sans', 'Helvetica Neue', Arial, sans-serif; fill: #173042; }
.cellsub { font: 500 11px 'IBM Plex Sans', 'Helvetica Neue', Arial, sans-serif; fill: rgba(255,255,255,0.88); }
.cellsub-dark { font: 600 11px 'IBM Plex Sans', 'Helvetica Neue', Arial, sans-serif; fill: #385062; }
.body { font: 500 12px 'IBM Plex Sans', 'Helvetica Neue', Arial, sans-serif; fill: #22313f; }
.small { font: 500 11px 'IBM Plex Sans', 'Helvetica Neue', Arial, sans-serif; fill: #5c6b7a; }
.grid { fill: #ffffff; stroke: #d7dee6; stroke-width: 1.25; }
.panel { fill: #f8fafc; stroke: #e2e8f0; stroke-width: 1.25; }
.subpanel { fill: #ffffff; stroke: #e2e8f0; stroke-width: 1; }
.guide { stroke: #d7dee6; stroke-width: 1; stroke-dasharray: 4 6; }
.outline { stroke: rgba(255,255,255,0.9); stroke-width: 1; }
</style>
</defs>
<rect x="24" y="24" width="1132" height="562" rx="22" class="panel"/>
<title>Sample volume by benchmark</title>
<desc>Sample counts in the frozen Option 1 release, with paper-setup and proxy samples separated by benchmark.</desc>
<text x="48" y="64" class="title">Sample Volume by Benchmark</text>
<text x="48" y="88" class="subtitle">The closed Option 1 release contains 302,776 evaluated samples. Proxy volume appears only in Denevil.</text>
<text x="282" y="144" text-anchor="end" class="axis">Value Kaleidoscope</text>
<rect x="300" y="126" width="720" height="28" rx="10" fill="#e2e8f0"/>
<rect x="300" y="126" width="720.00" height="28" rx="10" fill="#2f855a"/>
<text x="1038" y="144" class="axis">196,560</text>
<rect x="300" y="166" width="10" height="10" rx="2.5" fill="#2f855a"/>
<text x="318" y="175" class="body">Paper setup: 196,560</text>
<text x="282" y="226" text-anchor="end" class="axis">Denevil</text>
<rect x="300" y="208" width="720" height="28" rx="10" fill="#e2e8f0"/>
<rect x="300.00" y="208" width="225.47" height="28" rx="10" fill="#b7791f"/>
<text x="1038" y="226" class="axis">61,554</text>
<rect x="474" y="248" width="10" height="10" rx="2.5" fill="#b7791f"/>
<text x="492" y="257" class="body">Proxy: 61,554</text>
<text x="282" y="308" text-anchor="end" class="axis">UniMoral</text>
<rect x="300" y="290" width="720" height="28" rx="10" fill="#e2e8f0"/>
<rect x="300" y="290" width="96.53" height="28" rx="10" fill="#2f855a"/>
<text x="1038" y="308" class="axis">26,352</text>
<rect x="300" y="330" width="10" height="10" rx="2.5" fill="#2f855a"/>
<text x="318" y="339" class="body">Paper setup: 26,352</text>
<text x="282" y="390" text-anchor="end" class="axis">SMID</text>
<rect x="300" y="372" width="720" height="28" rx="10" fill="#e2e8f0"/>
<rect x="300" y="372" width="43.09" height="28" rx="10" fill="#2f855a"/>
<text x="1038" y="390" class="axis">11,764</text>
<rect x="300" y="412" width="10" height="10" rx="2.5" fill="#2f855a"/>
<text x="318" y="421" class="body">Paper setup: 11,764</text>
<text x="282" y="472" text-anchor="end" class="axis">CCD-Bench</text>
<rect x="300" y="454" width="720" height="28" rx="10" fill="#e2e8f0"/>
<rect x="300" y="454" width="23.98" height="28" rx="10" fill="#2f855a"/>
<text x="1038" y="472" class="axis">6,546</text>
<rect x="300" y="494" width="10" height="10" rx="2.5" fill="#2f855a"/>
<text x="318" y="503" class="body">Paper setup: 6,546</text>
<rect x="48" y="530" width="18" height="18" rx="4" fill="#2f855a"/>
<text x="76" y="544" class="label">paper-setup samples</text>
<rect x="286" y="530" width="18" height="18" rx="4" fill="#b7791f"/>
<text x="314" y="544" class="label">proxy samples</text>
</svg>
